<!-- Generator: Adobe Illustrator 25.0.0, SVG Export Plug-In  -->
<svg version="1.1" xmlns="http://www.w3.org/2000/svg" xmlns:xlink="http://www.w3.org/1999/xlink" x="0px" y="0px" width="27.29px"
	 height="32.2px" viewBox="0 0 27.29 32.2" style="overflow:visible;enable-background:new 0 0 27.29 32.2;" xml:space="preserve">
<style type="text/css">
	.st0{fill:#231F20;}
</style>
<defs>
</defs>
<g>
	<path class="st0" d="M21.07,7.15c0,3.95-3.2,7.15-7.15,7.15c-3.95,0-7.15-3.2-7.15-7.15S9.96,0,13.92,0
		C17.87,0,21.07,3.2,21.07,7.15z"/>
	<path class="st0" d="M20.53,16.27H6.76C3.03,16.27,0,19.3,0,23.04v9.16h5.52v-8.52c0-0.34,0.28-0.62,0.62-0.62
		c0.34,0,0.62,0.28,0.62,0.62v8.52h14v-8.52c0-0.34,0.28-0.62,0.62-0.62c0.34,0,0.62,0.28,0.62,0.62v8.52h5.29v-9.16
		C27.29,19.3,24.26,16.27,20.53,16.27z"/>
</g>
</svg>
