<!-- Generator: Adobe Illustrator 25.0.0, SVG Export Plug-In  -->
<svg version="1.1" xmlns="http://www.w3.org/2000/svg" xmlns:xlink="http://www.w3.org/1999/xlink" x="0px" y="0px" width="36.45px"
	 height="36.47px" viewBox="0 0 36.45 36.47" style="overflow:visible;enable-background:new 0 0 36.45 36.47;"
	 xml:space="preserve">
<style type="text/css">
	.st0{fill:none;}
	.st1{fill:#231F20;}
	.st2{fill:#FFFFFF;}
</style>
<defs>
</defs>
<g>
	<g>
		<path class="st0" d="M14.49,31.27l20.42-20.58c0.97-0.98,0.97-2.56,0-3.54l-5.6-5.6c-0.98-0.98-2.56-0.98-3.54,0L5.35,22.13
			L0.82,35.65L14.49,31.27z"/>
		<path class="st1" d="M0.24,36.23C0.24,36.23,0.24,36.23,0.24,36.23c-0.22-0.22-0.3-0.55-0.2-0.84l4.53-13.52
			c0.04-0.12,0.11-0.23,0.2-0.32L25.18,0.97c1.29-1.3,3.4-1.29,4.7,0l5.6,5.6c1.29,1.3,1.3,3.4,0,4.7L15.07,31.85
			c-0.09,0.09-0.2,0.17-0.33,0.2L1.07,36.43C0.78,36.52,0.46,36.45,0.24,36.23L0.24,36.23z M6.07,22.57l-3.95,11.8l11.94-3.82
			l20.28-20.44c0.66-0.65,0.65-1.72,0-2.38l-5.6-5.6c-0.65-0.66-1.72-0.66-2.38,0L6.07,22.57L6.07,22.57z"/>
	</g>
	<polygon class="st1" points="13.91,31.85 4.77,22.71 5.93,21.55 15.07,30.69 13.91,31.85 	"/>
	<polygon class="st1" points="6.58,34.03 0.97,35.49 2.44,29.89 	"/>
	<g>
		<line class="st2" x1="23.11" y1="3.91" x2="32.17" y2="12.98"/>
		<polygon class="st1" points="31.6,13.56 22.53,4.49 23.69,3.33 32.76,12.39 31.6,13.56 		"/>
	</g>
	<g>
		<line class="st2" x1="26.64" y1="6.78" x2="8.11" y2="25.48"/>
		<polygon class="st1" points="8.69,26.06 7.53,24.9 26.06,6.2 27.22,7.36 8.69,26.06 		"/>
	</g>
	<g>
		<line class="st2" x1="29.8" y1="9.94" x2="11.27" y2="28.63"/>
		<polygon class="st1" points="11.85,29.22 10.68,28.05 29.22,9.36 30.38,10.52 11.85,29.22 		"/>
	</g>
</g>
</svg>
