<?xml version="1.0" encoding="utf-8"?>
<!-- Generator: Adobe Illustrator 25.0.0, SVG Export Plug-In . SVG Version: 6.00 Build 0)  -->
<svg version="1.1" id="圖層_1" xmlns="http://www.w3.org/2000/svg" xmlns:xlink="http://www.w3.org/1999/xlink" x="0px" y="0px"
	 viewBox="0 0 299.6 227.9" style="enable-background:new 0 0 299.6 227.9;" xml:space="preserve">
<style type="text/css">
	.st0{clip-path:url(#SVGID_2_);fill:#FFFFFF;}
</style>
<g>
	<defs>
		<rect id="SVGID_1_" width="299.6" height="227.9"/>
	</defs>
	<clipPath id="SVGID_2_">
		<use xlink:href="#SVGID_1_"  style="overflow:visible;"/>
	</clipPath>
	<path class="st0" d="M17.5,22.9c0.1-1.5,0.3-2.8,0.3-4.1c0-3.5,0-7,0-10.5C17.9,0.8,18.6,0,26,0c4.8,0,9.7,0,14.5,0.2
		C63.3,1.1,86,3,108.3,8c14.3,3.2,28.3,7.2,41.5,14.4c3.2-1.5,6.3-3,9.5-4.4c15.1-6.5,30.9-10.1,47.1-12.8
		C228.8,1.4,251.5,0,274.4,0c6.7,0,7.9,1.2,7.9,7.8c0,5,0,9.9,0,15.6c3.6,0,6.7,0,9.8,0c6.4,0.1,7.6,1.2,7.6,7.6
		c0,25.6,0,51.2,0,76.9c0,36.9,0,73.9,0,110.8c0,9-0.3,9.3-9.3,9.3c-93.8,0-187.7,0-281.5,0c-0.8,0-1.7,0-2.5,0
		c-4.8-0.2-6.2-1.5-6.2-6.4c-0.1-8.5,0-17,0-25.5C0.1,175.2,0,154.4,0,133.6C0,99.7,0.1,65.8,0.2,31.9c0-0.7,0-1.3,0-2
		c0.2-5,1.6-6.4,6.7-6.5c2.3-0.1,4.7,0,7,0C15,23.3,16.1,23.1,17.5,22.9 M144.8,214.9V30.7c-15.6-8.4-32.5-12.5-49.7-15.5
		c-22.2-3.9-44.7-5.6-67.5-5.4v187.7C67.5,198.7,106.8,200.7,144.8,214.9 M272.3,197.5V9.8c-1.9,0-3.4,0-4.8,0
		c-18.8,0.2-37.5,1.5-56.1,4.4c-16.3,2.5-32.4,6-47.6,12.4c-3,1.3-5.9,2.8-8.6,4.1c-1.1,12.5-0.6,180.1,0.6,184
		C193.2,200.7,232.5,198.7,272.3,197.5 M10.1,33.3v184.8h111.2c-1.6-0.8-2.1-1.2-2.7-1.3c-12.1-2.1-24.2-4.5-36.4-6.2
		c-19-2.6-38.1-3.3-57.2-3.3c-6.1,0-7.2-1.2-7.3-7.4c-0.1-23.6-0.2-47.2-0.2-70.8c0-30.3,0.2-60.5,0.3-90.8c0-1.6-0.2-3.2-0.3-5.1
		H10.1z M282.6,33.2c-0.2,1.6-0.4,2.7-0.4,3.8c0,32.1-0.1,64.2-0.1,96.2c0,22.4,0.1,44.9,0.1,67.3c0,5.3-1.5,6.6-6.9,6.8
		c-11.3,0.3-22.6,0.5-33.9,1.1c-20,1-39.7,3.6-59.2,8.1c-1.1,0.2-2.1,0.7-3.7,1.3c8.7,1.1,107.5,0.7,110.9-0.4
		c1-6.8,0.5-181-0.5-184.3H282.6z"/>
	<path class="st0" d="M47.9,127.9c-2-2.4-2-4.3,0.4-6.7c2.2,0.1,5,0.2,7.8,0.3c22.2,0.8,43.7,5.3,65,11.4c1.1,0.3,2.5,0.5,3.2,1.3
		c0.9,1,1.7,2.5,1.6,3.7c-0.2,1.9-1.9,2.7-3.7,2.3c-2.3-0.5-4.5-1.2-6.7-1.8c-14.7-4.1-29.7-7.1-44.8-8.7
		c-6.4-0.7-12.9-0.9-19.3-1.4C50.2,128.3,49,128.1,47.9,127.9"/>
	<path class="st0" d="M46.1,100c0.8-3.3,3.2-3.4,5.6-3.2c8.8,0.7,17.6,1.1,26.3,2.3c15.1,2.1,30,5.1,44.6,9.6c3,0.9,4.4,2.7,3.6,4.9
		c-0.8,2.1-2.4,2.6-5.4,1.8c-18.5-5.3-37.4-8.9-56.5-11.1c-4.1-0.5-8.3-0.4-12.4-0.4C49.2,103.8,46.9,103.3,46.1,100"/>
	<path class="st0" d="M53.8,72.1c23.8,1.1,46.2,5.8,68.3,12c0.6,0.2,1.3,0.4,1.9,0.7c1.7,0.8,2.6,2.1,2,4c-0.6,1.9-2.1,2.5-3.9,2.2
		c-1-0.1-1.9-0.4-2.9-0.7c-19.4-5.3-39-9.5-59.2-10.9c-3.1-0.2-6.3-0.4-9.5-0.4c-2.2,0-4-0.7-4.3-3.2c-0.3-2.1,1.5-3.4,4.4-3.6
		C51.9,72,53.3,72.1,53.8,72.1"/>
	<path class="st0" d="M47.7,53.8c-2.3-4.3-1.5-6.3,3-6.1c7.6,0.3,15.3,0.6,22.9,1.6c15.8,2,31.4,5.4,46.8,9.7c1.1,0.3,2.2,0.6,3.3,1
		c2,0.8,2.9,2.2,2.2,4.3c-0.6,1.9-2.1,2.5-3.9,2.1c-0.8-0.1-1.6-0.4-2.4-0.7c-22.8-6.3-45.9-11-69.6-11.6
		C49.3,54.1,48.7,53.9,47.7,53.8"/>
	<path class="st0" d="M59.1,145.9c21.1,1.7,41.7,6.1,62.1,11.7c0.2,0,0.3,0.1,0.5,0.1c3.7,1.1,5,2.6,4.2,4.9
		c-0.7,2.1-2.4,2.5-5.9,1.7c-9.8-2.4-19.6-4.9-29.5-7c-12.8-2.7-25.9-4.4-39-4.7c-0.5,0-1,0-1.5,0c-2.1,0-3.6-1.1-3.7-3.2
		c-0.1-2.4,1.6-3.5,3.9-3.5C53.2,145.9,56.1,145.9,59.1,145.9"/>
	<path class="st0" d="M251.4,121.1c2.5,2.5,2.4,4.4,0.6,6.8c-1.2,0.2-2.7,0.6-4.1,0.5c-11.7-0.5-23.2,1.5-34.6,3.8
		c-11.2,2.3-22.4,5-33.5,7.6c-5,1.2-6.3,0-5.1-5.8C199.6,126.6,225.2,121.9,251.4,121.1"/>
	<path class="st0" d="M243.5,96.8c3.1,0,5.1-0.1,7.1,0c1.9,0.1,3.3,1.4,2.9,3.3c-0.2,1.2-1.5,2.3-2.6,3.2c-0.5,0.4-1.6,0.2-2.4,0.2
		c-22.2,0.8-43.8,5-65.2,10.5c-1.1,0.3-2.2,0.8-3.3,1.2c-3.5,1.1-5.6,0.5-6.2-1.9c-0.6-2.2,0.5-3.8,3.8-4.8c4.9-1.5,9.9-2.9,14.9-4
		c14.6-3.2,29.2-6.1,44.2-7.2C239.3,97.2,242,97,243.5,96.8"/>
	<path class="st0" d="M241.5,145.9c2.5,0,5-0.1,7.5,0c3.1,0.1,4.6,1.2,4.7,3.3c0,2.1-1.4,3.2-4.5,3.4c-7.1,0.5-14.2,0.9-21.3,1.7
		c-15.9,1.8-31.4,5.4-46.8,9.6c-1.3,0.3-2.7,1-3.8,0.8c-1.2-0.3-2.9-1.4-3.1-2.4c-0.2-1,0.7-2.7,1.7-3.6c0.9-0.8,2.4-1,3.7-1.3
		C199.8,151.8,220.4,147.5,241.5,145.9"/>
	<path class="st0" d="M246.2,72.1c1,0,2.3,0,3.6,0c2.3,0.1,3.9,1.1,3.8,3.6c-0.1,2.3-1.7,3-3.7,3.1c-3.6,0.2-7.3,0.3-10.9,0.6
		c-19.5,1.4-38.4,5.5-57.2,10.5c-1.1,0.3-2.2,0.7-3.4,0.9c-2,0.4-3.8,0.1-4.4-2.1c-0.6-2.1,0.5-3.5,2.5-4.2c0.5-0.2,0.9-0.4,1.4-0.5
		C200.1,77.8,222.6,73.1,246.2,72.1"/>
	<path class="st0" d="M252.9,47.9c0.2,1.9,0.3,3.5,0.5,5.5c-2,0.3-3.5,0.7-4.9,0.7c-22.7,0.8-44.8,5.2-66.6,11.2
		c-1.4,0.4-2.9,0.9-4.3,1.1c-1.9,0.3-3.5-0.7-3.6-2.5c-0.1-1.2,0.9-2.6,1.7-3.7c0.4-0.5,1.5-0.6,2.3-0.9
		c22.5-6.2,45.1-11.1,68.5-11.8C248.5,47.5,250.4,47.8,252.9,47.9"/>
</g>
</svg>
