<!-- Generator: Adobe Illustrator 25.0.0, SVG Export Plug-In  -->
<svg version="1.1" xmlns="http://www.w3.org/2000/svg" xmlns:xlink="http://www.w3.org/1999/xlink" x="0px" y="0px" width="15.79px"
	 height="16.71px" viewBox="0 0 15.79 16.71" style="overflow:visible;enable-background:new 0 0 15.79 16.71;"
	 xml:space="preserve">
<style type="text/css">
	.st0{fill:none;stroke:#FFFFFF;stroke-miterlimit:10;}
	.st1{fill:none;stroke:#FFFFFF;stroke-linecap:round;stroke-linejoin:round;stroke-miterlimit:10;}
</style>
<defs>
</defs>
<g>
	<g>
		<path class="st0" d="M4.16,5.89c-2.29,0-3.66-1.21-3.66-2.7S1.87,0.5,4.16,0.5"/>
		<path class="st0" d="M11.63,5.89c2.29,0,3.66-1.21,3.66-2.7S13.92,0.5,11.63,0.5"/>
		<path class="st1" d="M4.34,0.5C4.11,2.8,3.98,3.75,3.98,4.75c0,3.72,1.74,6.74,3.88,6.74s3.88-3.02,3.88-6.74
			c0-1-0.13-1.95-0.36-4.25H4.34z"/>
	</g>
	<line class="st0" x1="7.79" y1="11.46" x2="7.79" y2="16.16"/>
	<line class="st1" x1="5.53" y1="16.21" x2="10.05" y2="16.21"/>
</g>
</svg>
