<!-- Generator: Adobe Illustrator 25.0.0, SVG Export Plug-In  -->
<svg version="1.1" xmlns="http://www.w3.org/2000/svg" xmlns:xlink="http://www.w3.org/1999/xlink" x="0px" y="0px" width="20.25px"
	 height="7.34px" viewBox="0 0 20.25 7.34" style="overflow:visible;enable-background:new 0 0 20.25 7.34;" xml:space="preserve">
<style type="text/css">
	.st0{fill:none;stroke:#FFFFFF;stroke-width:1.2;stroke-miterlimit:10;}
</style>
<defs>
</defs>
<g>
	<path class="st0" d="M8.65,3.67c0,1.69-1,3.07-2.24,3.07H2.84C1.6,6.74,0.6,5.36,0.6,3.67l0,0c0-1.7,1-3.07,2.24-3.07h3.57
		C7.64,0.6,8.65,1.97,8.65,3.67L8.65,3.67z"/>
	<path class="st0" d="M19.65,3.67c0,1.69-1,3.07-2.24,3.07h-3.57c-1.24,0-2.24-1.38-2.24-3.07l0,0c0-1.7,1-3.07,2.24-3.07h3.57
		C18.65,0.6,19.65,1.97,19.65,3.67L19.65,3.67z"/>
	<line class="st0" x1="8.65" y1="3.67" x2="11.61" y2="3.67"/>
</g>
</svg>
