<?xml version="1.0" encoding="utf-8"?>
<!-- Generator: Adobe Illustrator 25.0.0, SVG Export Plug-In . SVG Version: 6.00 Build 0)  -->
<svg version="1.1" id="Background" xmlns="http://www.w3.org/2000/svg" xmlns:xlink="http://www.w3.org/1999/xlink" x="0px" y="0px"
	 viewBox="0 0 664.9 1014.5" style="enable-background:new 0 0 664.9 1014.5;" xml:space="preserve">
<style type="text/css">
	.st0{fill:#E93E41;}
	.st1{fill:#FFFFFF;}
	.st2{fill:#E93E41;stroke:#FFFFFF;stroke-width:3;stroke-miterlimit:10;}
</style>
<rect x="140.7" y="543.5" class="st0" width="235.1" height="470.9"/>
<polygon class="st0" points="380,366.1 335.4,212.5 312.3,191.3 226.9,191.3 148.2,197.9 131.6,242.1 89.2,284.8 66.3,255.1 60,215 
	14.4,218.8 0.4,243.9 26.2,326.5 51.3,383 80.5,366.6 138.2,324.6 140.7,578.2 350.1,567.7 "/>
<circle class="st0" cx="234.3" cy="85.2" r="85.2"/>
<rect x="270.4" y="353.8" class="st0" width="69.3" height="32.8"/>
<path class="st0" d="M68.5,386.6c-5.9,0-11.7-1.2-17.2-3.7c-11.9-5.3-20.7-15.5-24.1-28.1L1.4,260.1c-5.7-21.1,6.2-42.5,27.1-48.7
	c10.7-3.2,21.8-1.8,31.4,3.7c9.6,5.6,16.3,14.6,18.9,25.4l10.4,44.3l38.1-71c10.5-19.5,30.7-31.6,52.8-31.6h113.2
	c25.4,0,48.1,16.1,56.5,40c0.1,0.4,0.2,0.7,0.3,1.1L380,366.1c1,4.6-2,9.2-6.6,10.2c-4.6,0.9-9.2-2-10.2-6.6l-29.8-142.2
	c-6.2-16.8-22.2-28-40.1-28H180.1c-15.8,0-30.2,8.6-37.7,22.5l-48.8,91c-1.7,3.1-5.1,5-8.7,4.5c-3.5-0.5-6.4-3.1-7.2-6.5l-15.6-66.4
	c-1.5-6.2-5.3-11.3-10.7-14.5c-5.5-3.2-11.8-3.9-17.9-2.1c-11.9,3.6-18.7,15.8-15.5,27.8l25.8,94.8c2.1,7.6,7.3,13.7,14.5,16.9
	c7.2,3.2,15.3,2.9,22.3-0.6l60.2-61.9c4-2.6,9.3-1.4,11.9,2.6c2.6,4,1.4,9.3-2.6,11.9l-61,62.3C82.4,384.9,75.4,386.6,68.5,386.6z"
	/>
<g>
	<polygon class="st1" points="476.4,296.9 439.9,296.3 427.6,308.7 419.1,335.6 514.8,331.2 498.6,311.3 	"/>
	<rect x="262.2" y="337.8" class="st1" width="392" height="257.3"/>
	<g>
		<g>
			<path class="st0" d="M625.2,607.7H291.7c-21.9,0-39.6-17.8-39.6-39.6V364.3c0-21.9,17.8-39.6,39.6-39.6h333.5
				c21.9,0,39.6,17.8,39.6,39.6v203.8C664.9,590,647.1,607.7,625.2,607.7z M291.7,342.1c-12.2,0-22.1,9.9-22.1,22.1v203.8
				c0,12.2,9.9,22.1,22.1,22.1h333.5c12.2,0,22.1-9.9,22.1-22.1V364.3c0-12.2-9.9-22.1-22.1-22.1H291.7z"/>
			<path class="st0" d="M656.1,570.7H260.8c-4.8,0-8.7-3.9-8.7-8.7s3.9-8.7,8.7-8.7h395.3c4.8,0,8.7,3.9,8.7,8.7
				S660.9,570.7,656.1,570.7z"/>
			<path class="st0" d="M410.6,342.1c-0.7,0-1.5-0.1-2.2-0.3c-4.7-1.2-7.5-6-6.3-10.7c6.6-25.7,29.8-43.6,56.3-43.6
				c26.5,0,49.7,17.9,56.3,43.6c1.2,4.7-1.6,9.4-6.3,10.7c-4.7,1.2-9.5-1.6-10.7-6.3c-4.6-17.9-20.8-30.5-39.4-30.5
				c-18.6,0-34.8,12.5-39.4,30.5C418,339.5,414.5,342.1,410.6,342.1z"/>
			<path class="st0" d="M433.7,311.3c-2.2,0-4.5-0.9-6.2-2.6l-37.1-37.1c-3.4-3.4-3.4-9,0-12.4c3.4-3.4,9-3.4,12.4,0l37.1,37.1
				c3.4,3.4,3.4,9,0,12.4C438.2,310.4,436,311.3,433.7,311.3z"/>
			<path class="st0" d="M483.2,311.3c-2,0-4-0.7-5.6-2c-3.7-3.1-4.2-8.6-1.1-12.3l30.9-37.1c3.1-3.7,8.6-4.2,12.3-1.1
				c3.7,3.1,4.2,8.6,1.1,12.3l-30.9,37.1C488.1,310.2,485.7,311.3,483.2,311.3z"/>
		</g>
		<path class="st2" d="M351.8,477.1C351.8,477.1,351.8,477.1,351.8,477.1c-4.9,0-8.8-4-8.7-8.8l0.4-45.5c0-4.8,3.7-8.7,8.8-8.7
			c4.8,0,8.7,4,8.7,8.8l-0.4,45.5C360.5,473.3,356.6,477.1,351.8,477.1z"/>
		<path class="st2" d="M431.8,490.2C431.8,490.2,431.8,490.2,431.8,490.2l-49.3-0.4c-4.8,0-8.7-4-8.7-8.8l0.6-68.2
			c0-2.3,1-4.5,2.6-6.2c1.7-1.6,4.1-2.6,6.2-2.5l49.3,0.4c4.8,0,8.7,4,8.7,8.8l-0.6,68.2c0,2.3-1,4.5-2.6,6.2
			C436.3,489.3,434.1,490.2,431.8,490.2z M391.4,472.3l31.8,0.3l0.4-50.7l-31.8-0.3L391.4,472.3z"/>
		<path class="st0" d="M530.1,525.1c-1,0-2-0.2-2.9-0.5l-98.2-35c-3.5-1.3-5.8-4.6-5.8-8.3l0.6-68.2c0-3.6,2.3-6.8,5.7-8.1l98.8-37
			c2.7-1,5.7-0.6,8.1,1c2.4,1.6,3.8,4.4,3.7,7.2l-1.2,140.2c0,2.8-1.4,5.5-3.7,7.1C533.6,524.6,531.8,525.1,530.1,525.1z
			 M440.6,475.3l80.8,28.7l1-115.2l-81.3,30.5L440.6,475.3z"/>
		<path class="st2" d="M573.2,406.8c-2.9,0-5.7-1.4-7.4-4.1c-2.6-4.1-1.4-9.5,2.7-12.1l18.4-11.7c4.1-2.6,9.5-1.4,12.1,2.7
			c2.6,4.1,1.4,9.5-2.7,12.1l-18.4,11.7C576.4,406.4,574.8,406.8,573.2,406.8z"/>
		<path class="st2" d="M589.7,516.2c-1.7,0-3.3-0.5-4.8-1.5l-18.2-12.1c-4-2.7-5.1-8.1-2.4-12.1c2.7-4,8.1-5.1,12.1-2.4l18.2,12.1
			c4,2.7,5.1,8.1,2.4,12.1C595.3,514.8,592.6,516.2,589.7,516.2z"/>
		<path class="st2" d="M591.1,454C591.1,454,591.1,454,591.1,454l-18.3-0.1c-4.8,0-8.7-4-8.7-8.8c0-4.8,3.8-9,8.8-8.7l18.2,0.1
			c4.8,0,8.7,4,8.7,8.8C599.8,450.1,595.9,454,591.1,454z"/>
		<path class="st0" d="M414.4,531.8c-4,0-7.6-2.7-8.5-6.7l-9.5-40.1c-1.1-4.7,1.8-9.4,6.5-10.5c4.7-1.1,9.4,1.8,10.5,6.5l9.5,40.1
			c1.1,4.7-1.8,9.4-6.5,10.5C415.7,531.7,415,531.8,414.4,531.8z"/>
	</g>
</g>
<g>
	<polygon class="st1" points="264.4,182.2 212.7,182.3 238.4,216.9 	"/>
	<polygon class="st1" points="238.3,218.3 273.6,321.2 242.7,356.9 214.1,318.9 	"/>
</g>
<rect x="250.3" y="570.7" class="st1" width="19.3" height="443.8"/>
<rect x="218.7" y="519.9" transform="matrix(-1.836970e-16 1 -1 -1.836970e-16 789.4139 334.4598)" class="st1" width="17.5" height="84.1"/>
</svg>
