<?xml version="1.0" encoding="utf-8"?>
<!-- Generator: Adobe Illustrator 25.0.0, SVG Export Plug-In . SVG Version: 6.00 Build 0)  -->
<svg version="1.1" id="Background" xmlns="http://www.w3.org/2000/svg" xmlns:xlink="http://www.w3.org/1999/xlink" x="0px" y="0px"
	 viewBox="0 0 360.8 444.1" style="enable-background:new 0 0 360.8 444.1;" xml:space="preserve">
<style type="text/css">
	.st0{fill:none;stroke:#E93E41;stroke-width:10;stroke-linecap:round;stroke-linejoin:round;stroke-miterlimit:10;}
	.st1{fill:#E93E41;stroke:#E93E41;stroke-miterlimit:10;}
	.st2{fill:#070001;stroke:#E93E41;stroke-width:3;stroke-miterlimit:10;}
	.st3{fill:#E93E41;}
	.st4{fill:none;stroke:#FFFFFF;stroke-width:7;stroke-miterlimit:10;}
</style>
<g>
	<g>
		<line class="st0" x1="82.6" y1="239.7" x2="32.1" y2="317.9"/>
		<line class="st0" x1="155.7" y1="239.7" x2="206.3" y2="317.9"/>
		<path class="st1" d="M336.3,247.2v72l1,108.3c0,0,0.2,16.6-16.3,16.6c-20,0-19.9-14.6-19.9-14.6s0.2,12.3-19.7,13
			c-13.6,0.5-16.2-14.3-16.2-14.3l-2.9-108.9v-80.1l-42,32.8L174,228.2c-6.3-6-6.4-16-0.2-22.1l0,0c6-6,15.7-5.9,21.7,0.1l27.1,27.1
			l28.3-28.3c3.7-3.7,8.8-5.8,14-5.8h15v0.2l21-0.2l21.4,0.2v-0.2h20.3c10,0,18.2,8.1,18.2,18.2v59.8c0,13.5-11,24.5-24.5,24.5l0,0"
			/>
		<g>
			<g>
				<path class="st2" d="M161.9,168.4c-0.2,0-0.4,0-0.5,0c-0.4-0.1-0.8-0.4-0.9-0.8l-4.7-13.3c-0.2-0.5,0-1,0.4-1.4
					c0.4-0.3,1-0.4,1.5-0.1l13.2,6.6c0.4,0.2,0.6,0.6,0.7,1c0,0.4-0.1,0.8-0.5,1.1l-8.5,6.6C162.4,168.3,162.2,168.4,161.9,168.4z
					 M159.4,156.6l3,8.5l5.4-4.3L159.4,156.6z"/>
			</g>
			<g>
				<path class="st2" d="M200,209.1c-0.4,0.1-0.9-0.1-1.2-0.4L160.7,168c-0.5-0.5-0.4-1.3,0.2-1.8c0.6-0.5,1.4-0.4,1.9,0.1
					l37.2,39.8l6.4-4.9l-37.2-39.9c-0.5-0.5-0.4-1.3,0.2-1.8c0.6-0.5,1.4-0.4,1.9,0.1l38.1,40.9c0.2,0.2,0.3,0.6,0.3,0.9
					c0,0.3-0.2,0.6-0.5,0.9l-8.5,6.5C200.5,209,200.3,209.1,200,209.1z"/>
			</g>
			<g>
				<path class="st2" d="M209,214.7c-1.6,0.2-3.2-0.3-4.3-1.5l-4.8-5.3c-0.5-0.5-0.4-1.3,0.2-1.7l6.3-4.9c0.3-0.2,0.6-0.3,1-0.3
					c0.4,0,0.7,0.2,0.9,0.4l4.8,5.3c1.7,1.8,1.4,4.6-0.6,6.2l-1,0.8C210.8,214.2,209.9,214.6,209,214.7z M202.8,207.3l4,4.4
					c0.7,0.8,2.1,0.9,2.9,0.2l1-0.8c0.9-0.7,1-1.9,0.3-2.7l-4-4.4L202.8,207.3z"/>
			</g>
		</g>
	</g>
	<g>
		<path class="st0" d="M92.9,173.1c0,0,0.5-21.7-0.1-23.3c-9.6-26.5-28.2-24.4-28.2-55.8c0-30.4,23.5-55.1,53.9-55.1
			c30.4,0,54,24.7,54,55.1c0,31.4-18.6,29.4-28.3,55.8"/>
		<line class="st0" x1="99.5" y1="188.2" x2="137.9" y2="188.2"/>
		<line class="st0" x1="104.8" y1="206.9" x2="132.5" y2="206.9"/>
		<g>
			<line class="st0" x1="119.2" y1="6.2" x2="119.2" y2="12.5"/>
		</g>
		<g>
			<line class="st0" x1="74.5" y1="18" x2="77.7" y2="23.4"/>
		</g>
		<g>
			<line class="st0" x1="41.7" y1="50.5" x2="47.2" y2="53.7"/>
			<line class="st0" x1="196.3" y1="139.8" x2="190.9" y2="136.6"/>
		</g>
		<g>
			<line class="st0" x1="29.6" y1="95.1" x2="35.9" y2="95.1"/>
			<line class="st0" x1="208.1" y1="95.1" x2="201.8" y2="95.1"/>
		</g>
		<g>
			<line class="st0" x1="41.4" y1="139.8" x2="46.9" y2="136.6"/>
			<line class="st0" x1="196" y1="50.5" x2="190.5" y2="53.7"/>
		</g>
		<g>
			<line class="st0" x1="163.2" y1="18" x2="160.1" y2="23.4"/>
		</g>
	</g>
	<line class="st0" x1="231.1" y1="119.7" x2="231.1" y2="175.4"/>
	<polyline class="st0" points="155.7,239.7 7.2,239.7 7.2,119.7 	"/>
</g>
<circle class="st3" cx="308.1" cy="153.4" r="39.8"/>
<line class="st4" x1="301" y1="444.1" x2="301" y2="335.3"/>
<line class="st4" x1="339.8" y1="313.3" x2="339.8" y2="257.5"/>
<g>
	<g>
		<path class="st3" d="M122.4,138.4c5.6-8.2,11.2-16.4,16.7-24.6c0.8-1.2,1.6-2.3,2.4-3.5c2-2.9-0.7-6.8-3.9-6.8
			c-11.1,0-22.3,0-33.4,0c-1.6,0-3.2,0-4.8,0c-3.2,0-5.8,3.9-3.9,6.8c5.6,8.2,11.2,16.4,16.7,24.6c0.8,1.2,1.6,2.3,2.4,3.5
			c-0.2-0.8-0.4-1.5-0.6-2.3c0,10.4,0,20.8,0,31.2c0,1.5,0,2.9,0,4.4c0,2.4,2.1,4.6,4.5,4.5c2.4-0.1,4.5-2,4.5-4.5
			c0-10.2,0-20.4,0-30.7c0-1.6,0-3.2,0-4.7c-0.1-1.8-0.8-2.7-1.7-4.1c-3.3-4.8-6.6-9.6-9.8-14.5c-2.7-4-5.4-8-8.2-12
			c-1.3,2.3-2.6,4.5-3.9,6.8c11.1,0,22.3,0,33.4,0c1.6,0,3.2,0,4.8,0c-1.3-2.3-2.6-4.5-3.9-6.8c-5.6,8.2-11.2,16.4-16.7,24.6
			c-0.8,1.2-1.6,2.3-2.4,3.5c-1.3,2-0.4,5.1,1.6,6.2C118.6,141.2,121,140.5,122.4,138.4L122.4,138.4z"/>
	</g>
</g>
</svg>
