<?xml version="1.0" encoding="utf-8"?>
<!-- Generator: Adobe Illustrator 25.0.0, SVG Export Plug-In . SVG Version: 6.00 Build 0)  -->
<svg version="1.1" id="Objects" xmlns="http://www.w3.org/2000/svg" xmlns:xlink="http://www.w3.org/1999/xlink" x="0px" y="0px"
	 viewBox="0 0 370 369.5" style="enable-background:new 0 0 370 369.5;" xml:space="preserve">
<style type="text/css">
	.st0{fill:#E93E41;}
</style>
<path class="st0" d="M268.3,83.1c22.9-1.4,40.4-21.1,39-44.1c-1.4-22.9-21.1-40.4-44.1-39c-22.9,1.4-40.4,21.1-39,44.1
	C225.6,67.1,245.3,84.5,268.3,83.1z"/>
<path class="st0" d="M368.3,158.8c-17.6-52.5-44.7-67.2-47.7-68.7c-2.7-1.3-5.6-1.8-8.4-1.6l-42.6,2.3l-1.7,0.1l-40.7,2.5
	c-0.6,0-1.2,0.2-1.9,0.2c-14.8,0.4-61.2,3.6-79.4,29.6c-4.9,6.9-5.4,15.2-1.4,22c2.7,4.7,7.8,13.5,40.8,13.5c6.3,0,13.5-0.3,21.9-1
	c9.1-0.8,15.9-8.8,15.1-17.9c-0.4-5.2-3.2-9.5-7.2-12.3c4.3-0.5,8.3-0.7,12-0.8l1.6,26.2l1.2,20.1l2.4,39.9l1.1,18l1.1,18.3
	l0.7,11.2l13.1,89.7c0.7,11.2,10.9,19.6,22.3,17.8c9.9-1.6,16.7-11,16.1-21l-14.1-105.2c-0.2-2.9,2-5.3,4.9-5.5
	c2.9-0.2,5.3,2,5.5,4.9l6.7,110.2c0.7,11.2,10.9,19.6,22.3,17.8c9.9-1.6,16.7-11,16.1-21l-4.7-76.9l-0.1,0l-8.8-143.5
	c6.4,7.2,15.1,20,22.2,41.3c1,5-5,22.5-12.4,36c-4.4,8-1.4,18.1,6.6,22.5c2.5,1.4,5.2,2,7.9,2c5.9,0,11.5-3.1,14.6-8.6
	C360.2,208.9,375,178.6,368.3,158.8z M257.2,109.8l25.3-1.5c2.7-0.2,3.4,1.8,1.7,4.3l-9.8,14.3c-0.9,1.3-2.1,2-3.3,2
	c-1.2,0.1-2.5-0.5-3.6-1.6l-11.5-13C254,112,254.5,110,257.2,109.8z M289.2,194l-9.8,14.3c-0.9,1.3-2.1,2-3.3,2
	c-1.2,0.1-2.5-0.5-3.6-1.6l-11.5-13c-2-2.3-3.1-6.9-2.3-10.2l11.1-47.1c0.4-1.6,1-2.5,1.6-2.5c0.6,0,1.3,0.7,1.9,2.3l16.8,45.4
	C291.4,186.7,290.9,191.4,289.2,194z"/>
<g>
	<g>
		<path class="st0" d="M131.3,156.3"/>
		<path class="st0" d="M25.7,160H5.1c-2,0-3.7-1.7-3.7-3.7v-14.8c0-10.2,8.3-18.6,18.6-18.6h96.5c10.2,0,18.6,8.3,18.6,18.6v3.7
			c0,2.1-1.7,3.7-3.7,3.7c-2,0-3.7-1.7-3.7-3.7v-3.7c0-6.1-5-11.1-11.1-11.1H19.9c-6.1,0-11.1,5-11.1,11.1v11.1h16.9
			c2,0,3.7,1.7,3.7,3.7C29.4,158.3,27.8,160,25.7,160z"/>
		<path class="st0" d="M131.3,334.4H5.1c-2,0-3.7-1.7-3.7-3.7c0-2.1,1.7-3.7,3.7-3.7h126.2c2,0,3.7,1.7,3.7,3.7
			C135,332.8,133.3,334.4,131.3,334.4z"/>
		<path class="st0" d="M75.6,349.3H60.8c-2,0-3.7-1.7-3.7-3.7s1.7-3.7,3.7-3.7h14.8c2,0,3.7,1.7,3.7,3.7S77.7,349.3,75.6,349.3z"/>
		<path class="st0" d="M116.4,364.1H19.9c-10.2,0-18.6-8.3-18.6-18.6V156.3c0-2.1,1.7-3.7,3.7-3.7c2,0,3.7,1.7,3.7,3.7v189.3
			c0,6.1,5,11.1,11.1,11.1h96.5c6.1,0,11.1-5,11.1-11.1v-52.4c0-2.1,1.7-3.7,3.7-3.7c2,0,3.7,1.7,3.7,3.7v52.4
			C135,355.8,126.7,364.1,116.4,364.1z"/>
	</g>
	<path class="st0" d="M70.1,314.1c-0.5,0-1-0.1-1.5-0.3c-1.3-0.6-2.2-1.9-2.2-3.4v-25.8H44.3c-6.1,0-11.1-5-11.1-11.1V163.7
		c0-6.1,5-11.1,11.1-11.1H227c6.1,0,11.1,5,11.1,11.1v109.8c0,6.1-5,11.1-11.1,11.1H104.7l-32.1,28.5
		C71.8,313.8,71,314.1,70.1,314.1z M44.3,160c-2,0-3.7,1.7-3.7,3.7v109.8c0,2,1.7,3.7,3.7,3.7h25.8c2,0,3.7,1.7,3.7,3.7v21.2l27-24
		c0.7-0.6,1.6-0.9,2.5-0.9H227c2,0,3.7-1.7,3.7-3.7V163.7c0-2-1.7-3.7-3.7-3.7H44.3z"/>
	<g>
		<g>
			<path class="st0" d="M124.1,202.2H87.9c-2,0-3.7-1.7-3.7-3.7c0-2.1,1.7-3.7,3.7-3.7h36.2c2,0,3.7,1.7,3.7,3.7
				C127.8,200.6,126.1,202.2,124.1,202.2z"/>
			<path class="st0" d="M71.2,202.2H61c-2,0-3.7-1.7-3.7-3.7c0-2.1,1.7-3.7,3.7-3.7h10.2c2,0,3.7,1.7,3.7,3.7
				C74.9,200.6,73.2,202.2,71.2,202.2z"/>
			<path class="st0" d="M124.1,243.1h-7.4c-2,0-3.7-1.7-3.7-3.7c0-2.1,1.7-3.7,3.7-3.7h7.4c2,0,3.7,1.7,3.7,3.7
				C127.8,241.4,126.1,243.1,124.1,243.1z"/>
			<path class="st0" d="M101.8,243.1H61c-2,0-3.7-1.7-3.7-3.7c0-2.1,1.7-3.7,3.7-3.7h40.8c2,0,3.7,1.7,3.7,3.7
				C105.5,241.4,103.9,243.1,101.8,243.1z"/>
			<path class="st0" d="M87,209.7H72.1c-2,0-3.7-1.7-3.7-3.7v-14.8c0-2.1,1.7-3.7,3.7-3.7H87c2,0,3.7,1.7,3.7,3.7V206
				C90.7,208,89,209.7,87,209.7z M75.8,202.2h7.4v-7.4h-7.4V202.2z"/>
			<path class="st0" d="M116.7,250.5h-14.8c-2,0-3.7-1.7-3.7-3.7v-14.8c0-2.1,1.7-3.7,3.7-3.7h14.8c2,0,3.7,1.7,3.7,3.7v14.8
				C120.4,248.8,118.7,250.5,116.7,250.5z M105.5,243.1h7.4v-7.4h-7.4V243.1z"/>
		</g>
		<g>
			<g>
				<g>
					<path class="st0" d="M178.6,230.1c-2.3,0-4.4-0.9-6.1-2.6c-2.3-2.3-3.2-5-2.9-7.9c1.1-9.4,15.6-19.1,30.4-28.2l2.6-1.6
						c1.9-1.2,4.5-0.9,6.2,0.8c1.7,1.7,2,4.2,0.8,6.2l0,0l-1.4,2.2c-9.4,15.1-19.4,30-28.6,31.1
						C179.3,230.1,178.9,230.1,178.6,230.1z M197.9,201.5c-8.5,5.5-20.3,13.8-20.9,19c-0.1,0.6,0,1,0.7,1.7c0.5,0.5,0.8,0.5,1.2,0.5
						C183.8,222.1,192.2,210.2,197.9,201.5z M206.6,196L206.6,196C206.6,196,206.6,196,206.6,196z M206.5,194.8L206.5,194.8
						L206.5,194.8z M203.4,192.8C203.3,192.8,203.3,192.8,203.4,192.8L203.4,192.8z"/>
				</g>
			</g>
			<path class="st0" d="M180.7,253.7c-19.2,0-34.8-15.6-34.8-34.7s15.6-34.7,34.8-34.7c2,0,4,0.2,5.9,0.5c2,0.3,3.4,2.3,3,4.3
				c-0.3,2-2.2,3.4-4.3,3c-1.5-0.3-3.1-0.4-4.6-0.4c-15.1,0-27.3,12.3-27.3,27.3s12.3,27.3,27.3,27.3c15.1,0,27.3-12.3,27.3-27.3
				c0-2.2-0.3-4.5-0.8-6.6c-0.5-2,0.7-4,2.7-4.5c2-0.5,4,0.7,4.5,2.7c0.7,2.7,1,5.6,1,8.4C215.5,238.1,199.9,253.7,180.7,253.7z"/>
		</g>
	</g>
</g>
<rect x="241.3" y="100.1" class="st0" width="58.1" height="122.6"/>
</svg>
