<?xml version="1.0" encoding="utf-8"?>
<!-- Generator: Adobe Illustrator 25.0.0, SVG Export Plug-In . SVG Version: 6.00 Build 0)  -->
<svg version="1.1" id="圖層_1" xmlns="http://www.w3.org/2000/svg" xmlns:xlink="http://www.w3.org/1999/xlink" x="0px" y="0px"
	 viewBox="0 0 263.2 239" style="enable-background:new 0 0 263.2 239;" xml:space="preserve">
<style type="text/css">
	.st0{fill:#e93e41;}
	.st1{fill:none;stroke:#e93e41;stroke-width:4;stroke-miterlimit:10;}
	.st2{fill:none;stroke:#e93e41;stroke-width:5;stroke-miterlimit:10;}
</style>
<path class="st0" d="M200.5,27.9c0,15.4-12.5,27.9-27.9,27.9c-15.4,0-27.9-12.5-27.9-27.9S157.1,0,172.6,0
	C188,0,200.5,12.5,200.5,27.9"/>
<path class="st0" d="M218.4,61.9l-15.3,12c0,0-2.7,6-15.3,0c-12.6-6-73.2-31.3-73.2-31.3s-7.3-5.3-16,0
	c-8.6,5.3-41.9,21.3-41.9,21.3l6,9.3l31.9-14.8c0,0,12.6-5.5,23.3,0l10.6,5.5l-23.3,47.9c0,0-4,10,8.6,15.3
	c12.6,5.3,30.6,14.6,30.6,14.6s2.7,6.7-12,8C118,151,91.4,155,91.4,155s-4,3.3-3.3,10c0.7,6.7,8.6,6,14.6,4.7
	c6-1.3,69.8-12.6,69.8-12.6s11.3-5.3,2.7-14.6c-8.6-9.3-33.9-20.6-33.9-20.6l35.9-4.7c0,0,7.3-2,19.3,4c12,6,47.2,21.9,47.2,21.9
	s8.6,2,12.6-5.3c4-7.3-8-12-8-12l-47.9-20.4c0,0-10.6-4.9-21.3-3.6c-10.6,1.3-30.6,3.6-30.6,3.6l14.6-28.2l25.3,9.3
	c0,0,10.6,6.7,20-1.3c9.3-8,31.9-23.3,31.9-23.3s6-4-0.7-10.6C233.1,44.6,218.4,61.9,218.4,61.9"/>
<rect x="17.4" y="48.7" transform="matrix(0.8656 -0.5007 0.5007 0.8656 -36.6977 31.5011)" class="st1" width="45.9" height="70.9"/>
<rect x="30.2" y="77.3" transform="matrix(0.8656 -0.5007 0.5007 0.8656 -38.9136 29.2762)" class="st0" width="9.8" height="19.6"/>
<line class="st2" x1="16.5" y1="56.9" x2="52" y2="118.3"/>
<polygon class="st0" points="263.2,162.9 263.2,189.3 26.1,239 26.1,206.3 85.6,206.3 85.6,189.8 144.6,189.8 144.6,177.7 
	205.9,177.7 205.5,162.9 "/>
</svg>
