<!-- Generator: Adobe Illustrator 25.0.0, SVG Export Plug-In  -->
<svg version="1.1" xmlns="http://www.w3.org/2000/svg" xmlns:xlink="http://www.w3.org/1999/xlink" x="0px" y="0px" width="32.68px"
	 height="26.36px" viewBox="0 0 32.68 26.36" style="overflow:visible;enable-background:new 0 0 32.68 26.36;"
	 xml:space="preserve">
<style type="text/css">
	.st0{fill:#323232;}
</style>
<defs>
</defs>
<g>
	<path class="st0" d="M13.23,23.96c-1.4,1.6-3.31,2.41-5.61,2.41c-2.51,0-4.41-1-5.81-3.01C0.6,21.75,0,20.05,0,18.24
		C0,10.93,3.41,4.81,10.32,0l2,2c-3.81,3.41-5.71,6.52-5.71,9.32c0,0.5,0.4,0.8,1.3,1c4.81,1.2,7.22,3.51,7.22,7.02
		C15.14,21.15,14.43,22.66,13.23,23.96z M30.87,23.96c-1.5,1.6-3.41,2.41-5.61,2.41c-2.51,0-4.51-1-5.91-3.01
		c-1.2-1.6-1.7-3.31-1.7-5.11c0-7.32,3.41-13.43,10.32-18.24l2,2c-3.81,3.41-5.71,6.52-5.71,9.32c0,0.5,0.4,0.8,1.3,1
		c4.71,1.2,7.12,3.51,7.12,7.02C32.68,21.15,32.08,22.66,30.87,23.96z"/>
</g>
</svg>
