<?xml version="1.0" encoding="utf-8"?>
<!-- Generator: Adobe Illustrator 25.0.0, SVG Export Plug-In . SVG Version: 6.00 Build 0)  -->
<svg version="1.1" id="圖層_1" xmlns="http://www.w3.org/2000/svg" xmlns:xlink="http://www.w3.org/1999/xlink" x="0px" y="0px"
	 viewBox="0 0 692.7 936.6" style="enable-background:new 0 0 692.7 936.6;" xml:space="preserve">
<style type="text/css">
	.st0{clip-path:url(#SVGID_2_);fill:#E93E41;}
	.st1{clip-path:url(#SVGID_2_);fill:none;stroke:#FFFFFF;stroke-width:14;stroke-miterlimit:10;}
	.st2{clip-path:url(#SVGID_2_);fill:none;stroke:#E93E41;stroke-width:18;stroke-miterlimit:10;}
</style>
<g>
	<defs>
		<rect id="SVGID_1_" width="692.7" height="936.6"/>
	</defs>
	<clipPath id="SVGID_2_">
		<use xlink:href="#SVGID_1_"  style="overflow:visible;"/>
	</clipPath>
	<path class="st0" d="M271.9,292.8c0,48.7-39.5,88.1-88.1,88.1s-88.1-39.5-88.1-88.1c0-48.7,39.5-88.1,88.1-88.1
		S271.9,244.1,271.9,292.8"/>
	<path class="st0" d="M271.6,396H127.1c0,0-105,21.9-101,117.7c0,0-10,103,69.8,86.4v294.6c0,0-1.1,39.9,38.4,41.9
		c0,0,51.4,0,55.4-51.9c0,0-6,51.9,39.9,51.9s41.9-51.9,41.9-51.9l0.1-411.9l137.4-196c0,0,10.8-16.5-5.5-26.5c0,0-14.9-14-30.9,4.7
		L271.6,396z"/>
	<path class="st1" d="M89,546.8h98.4c0,0,24.9,0,24.9,31.9c0,31.9-28.9,27.9-28.9,27.9l-88.5,0.2"/>
	<polyline class="st1" points="112.9,546.8 112.9,495 219.2,495 219.2,665.6 112.9,665.6 112.9,606.8 	"/>
	<line class="st1" x1="183.8" y1="936.6" x2="183.8" y2="665.6"/>
	<line class="st1" x1="271.6" y1="642.7" x2="219.2" y2="642.7"/>
	<path class="st2" d="M674.5,481.6H18.2c-5.1,0-9.2-4.1-9.2-9.2V18.2C9,13.1,13.1,9,18.2,9h656.3c5.1,0,9.2,4.1,9.2,9.2v454.1
		C683.7,477.5,679.6,481.6,674.5,481.6z"/>
	<path class="st2" d="M167.9,93.3c0,13-10.5,23.5-23.5,23.5c-13,0-23.5-10.5-23.5-23.5c0-13,10.5-23.5,23.5-23.5
		C157.4,69.9,167.9,80.4,167.9,93.3z"/>
	<path class="st2" d="M309.7,195.4c0,13-10.5,23.5-23.5,23.5c-13,0-23.5-10.5-23.5-23.5c0-13,10.5-23.5,23.5-23.5
		C299.2,171.9,309.7,182.4,309.7,195.4z"/>
	<path class="st2" d="M449.5,161.3c0,13-10.5,23.5-23.5,23.5c-13,0-23.5-10.5-23.5-23.5c0-13,10.5-23.5,23.5-23.5
		C439,137.8,449.5,148.3,449.5,161.3z"/>
	<path class="st2" d="M518.8,252.6c0,13-10.5,23.5-23.5,23.5c-13,0-23.5-10.5-23.5-23.5c0-13,10.5-23.5,23.5-23.5
		C508.3,229.2,518.8,239.7,518.8,252.6z"/>
	<line class="st2" x1="160" y1="101.3" x2="262.7" y2="177.6"/>
	<line class="st2" x1="309.7" y1="204.7" x2="405.1" y2="171.9"/>
	<line class="st2" x1="442.9" y1="177.6" x2="480.7" y2="234.3"/>
	<line class="st2" x1="54.7" y1="186" x2="95.5" y2="223.8"/>
	<line class="st2" x1="95.7" y1="186" x2="54.5" y2="223.8"/>
	<line class="st2" x1="247.9" y1="82.2" x2="298.7" y2="129.2"/>
	<line class="st2" x1="298.9" y1="82.2" x2="247.6" y2="129.2"/>
	<path class="st2" d="M344.6,102.4l28.6-26.5l24.1,17.4l52.2-13.6V44.9h45.8v28.8l48.8,23.5l26.5-18.9l32.5,31l-33.3,28.6
		c0,0,21.9,21.9,25,39.8h46.9v51.6h-48.4c0,0,0.8,33.7-15.1,51.1l26.5,27.2l-32.5,32.5l-25.7-27.4c0,0-30.2,24.3-51,22.8v38.6h-52.4
		v-43.9c0,0-45.8-5.5-49.1-17.5"/>
</g>
</svg>
