<!-- Generator: Adobe Illustrator 25.0.0, SVG Export Plug-In  -->
<svg version="1.1" xmlns="http://www.w3.org/2000/svg" xmlns:xlink="http://www.w3.org/1999/xlink" x="0px" y="0px" width="13.91px"
	 height="15.07px" viewBox="0 0 13.91 15.07" style="overflow:visible;enable-background:new 0 0 13.91 15.07;"
	 xml:space="preserve">
<style type="text/css">
	.st0{fill:#FFFFFF;}
</style>
<defs>
</defs>
<g>
	<path class="st0" d="M13.36,15.07H0.53C0.24,15.07,0,14.83,0,14.53v-14C0,0.24,0.24,0,0.53,0h8.43C9.26,0,9.5,0.24,9.5,0.53
		c0,0.3-0.24,0.53-0.53,0.53H1.07V14h11.75V4.93c0-0.3,0.24-0.53,0.54-0.53c0.29,0,0.54,0.24,0.54,0.53v9.6
		C13.89,14.83,13.65,15.07,13.36,15.07z"/>
	<path class="st0" d="M13.37,5.46c0,0-0.01,0-0.01,0H8.96c-0.29,0-0.53-0.24-0.53-0.53v-4.4c0-0.22,0.13-0.41,0.33-0.49
		C8.96-0.04,9.19,0,9.34,0.16l4.33,4.33c0.14,0.1,0.24,0.26,0.24,0.44C13.91,5.22,13.67,5.46,13.37,5.46z M9.5,4.4h2.57L9.5,1.82
		V4.4z"/>
	<path class="st0" d="M10.12,8.1H3.8c-0.3,0-0.53-0.24-0.53-0.54c0-0.29,0.24-0.53,0.53-0.53h6.32c0.3,0,0.53,0.24,0.53,0.53
		C10.65,7.86,10.42,8.1,10.12,8.1z"/>
	<path class="st0" d="M10.12,10.15H3.8c-0.3,0-0.53-0.24-0.53-0.54c0-0.3,0.24-0.53,0.53-0.53h6.32c0.3,0,0.53,0.24,0.53,0.53
		C10.65,9.91,10.42,10.15,10.12,10.15z"/>
	<path class="st0" d="M10.12,12.19H3.8c-0.3,0-0.53-0.24-0.53-0.53s0.24-0.54,0.53-0.54h6.32c0.3,0,0.53,0.24,0.53,0.54
		S10.42,12.19,10.12,12.19z"/>
</g>
</svg>
