<!-- Generator: Adobe Illustrator 25.0.0, SVG Export Plug-In  -->
<svg version="1.1" xmlns="http://www.w3.org/2000/svg" xmlns:xlink="http://www.w3.org/1999/xlink" x="0px" y="0px" width="19.44px"
	 height="19.35px" viewBox="0 0 19.44 19.35" style="overflow:visible;enable-background:new 0 0 19.44 19.35;"
	 xml:space="preserve">
<style type="text/css">
	.st0{fill:none;}
	.st1{fill:#FFFFFF;}
</style>
<defs>
</defs>
<g>
	<g>
		<path class="st0" d="M8.12,16.89L18.5,6.51c0.59-0.59,0.59-1.56,0-2.16l-3.41-3.41c-0.59-0.6-1.56-0.6-2.16,0L2.55,11.32
			L0.5,18.85L8.12,16.89z"/>
		<path class="st1" d="M0.15,19.2C0.15,19.2,0.14,19.2,0.15,19.2c-0.13-0.14-0.18-0.33-0.12-0.51l2.05-7.53
			c0.02-0.07,0.07-0.14,0.12-0.19L12.58,0.59c0.79-0.79,2.07-0.79,2.86,0L18.85,4c0.79,0.79,0.79,2.07,0,2.86L8.47,17.24
			c-0.06,0.06-0.12,0.1-0.2,0.12l-7.62,1.96C0.47,19.38,0.28,19.34,0.15,19.2L0.15,19.2z M2.99,11.6l-1.7,6.48l6.56-1.62L18.14,6.16
			c0.4-0.4,0.4-1.05,0-1.45L14.73,1.3c-0.4-0.4-1.05-0.4-1.45,0L2.99,11.6L2.99,11.6z"/>
	</g>
	<polygon class="st1" points="7.76,17.24 2.2,11.68 2.9,10.97 8.47,16.54 7.76,17.24 	"/>
	<polygon class="st1" points="4.01,17.86 0.59,18.76 1.49,15.34 	"/>
	<g>
		<line class="st1" x1="11.31" y1="2.38" x2="16.83" y2="7.9"/>
		<polygon class="st1" points="16.48,8.26 10.96,2.73 11.67,2.03 17.19,7.55 16.48,8.26 		"/>
	</g>
	<g>
		<line class="st1" x1="13.46" y1="4.13" x2="4.23" y2="13.36"/>
		<polygon class="st1" points="4.58,13.72 3.88,13.01 13.11,3.78 13.82,4.48 4.58,13.72 		"/>
	</g>
	<g>
		<line class="st1" x1="15.39" y1="6.05" x2="6.15" y2="15.29"/>
		<polygon class="st1" points="6.51,15.64 5.8,14.93 15.04,5.7 15.74,6.41 6.51,15.64 		"/>
	</g>
</g>
</svg>
