<!-- Generator: Adobe Illustrator 25.0.0, SVG Export Plug-In  -->
<svg version="1.1" xmlns="http://www.w3.org/2000/svg" xmlns:xlink="http://www.w3.org/1999/xlink" x="0px" y="0px" width="102.8px"
	 height="114.47px" viewBox="0 0 102.8 114.47" style="overflow:visible;enable-background:new 0 0 102.8 114.47;"
	 xml:space="preserve">
<style type="text/css">
	.st0{fill:none;stroke:#231916;stroke-width:3;}
	.st1{fill:#231916;}
</style>
<defs>
</defs>
<g>
	<g>
		<path class="st0" d="M101.3,40.95H71.67v72.02H31.14V41.04H1.5V1.5h99.8V40.95z"/>
		<path class="st0" d="M93.17,32.87H63.54v71.98H39.23V32.87H9.6V9.71h83.57V32.87z"/>
		<polygon class="st1" points="67.13,92.18 63.55,74.95 59.98,92.18 		"/>
		<polygon class="st1" points="27.53,45.79 31.1,63.01 34.68,45.79 		"/>
	</g>
	<g>
		<path class="st1" d="M74.33,20.7c0.09-0.05,0.19-0.1,0.26-0.13c0.07-0.03,0.16-0.07,0.25-0.07c0.09,0,0.16,0.03,0.24,0.09
			c0.08,0.06,0.14,0.12,0.22,0.23c0.07,0.11,0.22,0.3,0.27,0.38c0.05,0.07,0.19,0.27,0.25,0.31c0.06,0.04,0.07,0.03,0.1,0.03
			c0.03-0.01,0.07-0.03,0.1-0.13c0.03-0.09,0.06-0.16,0.11-0.26c0.04-0.1,0.12-0.19,0.22-0.24c0.09-0.06,0.3-0.17,0.53-0.16
			c0.17,0.01,0.28,0.06,0.32,0.13c0.04,0.06,0.05,0.19,0.03,0.27c-0.02,0.08-0.18,0.78-0.22,0.95c-0.04,0.16-0.43,1.79-0.48,2.03
			c-0.05,0.23-0.16,0.83-0.22,1.12c-0.06,0.29-0.39,1.93-0.44,2.16c-0.05,0.23-0.36,1.63-0.47,2.05c-0.11,0.42-0.29,0.96-0.34,1.1
			c-0.06,0.18-0.18,0.49-0.25,0.62c-0.09,0.19-0.34,0.55-0.37,0.57c-0.03,0.02-0.14,0.1-0.22,0.15C74.14,31.92,74,32,73.86,32.03
			c-0.14,0.03-0.4,0.05-0.44,0.03c-0.07-0.04-0.18-0.09-0.27-0.19c-0.05-0.05-0.22-0.26-0.38-0.65c-0.16-0.39-0.32-1.16-0.33-1.37
			c-0.01-0.21-0.03-0.36-0.03-0.39c0-0.03-0.01-0.1-0.01-0.1s0.02-0.11,0.13-0.23c0.11-0.12,0.17-0.18,0.3-0.22
			c0.14-0.04,0.24-0.03,0.3-0.01c0.06,0.03,0.1,0.05,0.1,0.09c0,0.12-0.02,0.24,0,0.4c0.03,0.19,0.07,0.41,0.13,0.59
			c0.05,0.19,0.22,0.67,0.3,0.79c0.08,0.13,0.11,0.17,0.17,0.16c0.06-0.01,0.1-0.02,0.17-0.14c0.07-0.12,0.22-0.42,0.28-0.61
			c0.06-0.2,0.15-0.55,0.21-0.74c0.06-0.19,0.17-0.63,0.27-1.03c0.09-0.4,0.19-0.89,0.23-1.14c0.04-0.26,0.13-0.85,0.18-1.11
			c0.05-0.26,0.11-0.55,0.13-0.7c0.02-0.15,0.12-0.79,0.14-0.88c0.02-0.09,0.29-1.44,0.33-1.68c0.05-0.24,0.08-0.36,0.08-0.39
			c0.01-0.04,0.04-0.07,0.04-0.1c0.01-0.03-0.02-0.06-0.05-0.08c-0.03-0.02-0.06-0.04-0.08-0.04c-0.02,0-0.06,0.02-0.1,0.04
			c-0.08,0.03-0.17,0.04-0.26,0.04c-0.09,0-0.17-0.05-0.27-0.15c-0.1-0.09-0.28-0.34-0.37-0.45c-0.09-0.11-0.23-0.33-0.31-0.4
			c-0.08-0.07-0.2-0.1-0.26-0.16c-0.06-0.06-0.08-0.12-0.09-0.19c-0.02-0.07-0.01-0.13-0.01-0.16c0-0.03,0.08-0.1,0.1-0.11
			C74.23,20.74,74.31,20.71,74.33,20.7"/>
		<path class="st1" d="M64,17.29c-0.06,0-0.09,0.01-0.13,0.03c-0.03,0.02-0.12,0.05-0.19,0.04c-0.07,0-0.12,0.01-0.17-0.05
			c-0.05-0.06-0.08-0.11-0.08-0.16c-0.01-0.05,0.01-0.08-0.01-0.12c-0.02-0.04-0.03-0.1-0.04-0.13c-0.01-0.03-0.03-0.13,0-0.19
			c0.04-0.06,0.11-0.15,0.18-0.2c0.07-0.04,0.23-0.15,0.36-0.17c0.13-0.03,0.11-0.02,0.19-0.02s0.17,0.02,0.21,0.04
			c0.04,0.02,0.15,0.11,0.15,0.13c0.02,0.04,0.04,0.09,0,0.19c-0.03,0.1-0.13,0.24-0.17,0.32c-0.05,0.08-0.11,0.17-0.16,0.21
			C64.1,17.24,64.02,17.29,64,17.29"/>
		<path class="st1" d="M62.1,24.93c-0.02,0.15-0.09,0.53-0.11,0.7c-0.02,0.17-0.08,0.38-0.12,0.47c-0.04,0.09-0.08,0.23-0.12,0.23
			c-0.04,0-0.06-0.06-0.09-0.18c-0.03-0.12-0.02-0.2-0.03-0.32c-0.01-0.11,0.05-0.39,0.06-0.51c0.01-0.12,0.1-0.52,0.15-0.73
			c0.05-0.2,0.15-0.54,0.18-0.59c0.04-0.06,0.06-0.22,0.09-0.23c0.02-0.01,0.03,0.2,0.03,0.31C62.13,24.2,62.11,24.78,62.1,24.93
			 M61.65,22.05c-0.14,0-0.15,0-0.22,0.02c-0.07,0.02-0.15,0.05-0.16,0.01c-0.01-0.05,0.02-0.18,0.02-0.18s0.04-0.06,0.14-0.09
			c0.11-0.04,0.21-0.05,0.28-0.09c0.08-0.04,0.2-0.17,0.2-0.17s0.06,0.11,0.05,0.2c-0.01,0.1-0.04,0.17-0.08,0.21
			C61.84,22,61.78,22.05,61.65,22.05 M59.26,21.31c-0.02,0.06-0.07,0.21-0.1,0.25c-0.03,0.05-0.15,0.28-0.2,0.35
			c-0.05,0.07-0.11,0.19-0.15,0.21c-0.06,0.06-0.12,0.12-0.19,0.17c-0.04,0.03-0.17,0.09-0.19,0.1c-0.07,0.03-0.18,0.06-0.36,0.07
			c-0.18,0-0.35-0.03-0.51-0.1c-0.2-0.1-0.37-0.23-0.56-0.6c-0.18-0.37-0.25-0.55-0.25-0.77c0-0.22,0.09-0.6,0.16-0.78
			c0.07-0.18,0.2-0.53,0.28-0.67c0.06-0.12,0.17-0.29,0.28-0.39c0.03-0.03,0.05-0.06,0.09-0.08c0.04-0.03,0.07-0.04,0.15-0.12
			c0.08-0.08,0.14-0.08,0.16-0.1c0.02-0.01,0.06,0.01,0.08,0.01c0.05-0.01,0.06,0,0.09,0.09c0.02,0.06,0.18,0.39,0.22,0.47
			c0.04,0.08,0.08,0.08,0.08,0.13c0,0.04,0.01,0.14,0.07,0.28c0.06,0.14,0.23,0.4,0.31,0.52c0.08,0.12,0.35,0.43,0.43,0.53
			c0.08,0.11,0.15,0.17,0.15,0.21C59.3,21.14,59.28,21.25,59.26,21.31 M73.29,20.07c-0.12-0.01-0.47,0.03-0.57,0.04
			c-0.1,0.01-0.32,0.05-0.46,0.16c-0.18,0.14-0.19,0.34-0.2,0.46c-0.01,0.12-0.01,0.32-0.01,0.45c-0.01,0.15-0.02,0.2-0.04,0.34
			c-0.02,0.06-0.03,0.13-0.04,0.16c-0.02,0.04-0.05,0.05-0.1,0.02c-0.04-0.02-0.09-0.1-0.12-0.13c-0.08-0.07-0.48-0.6-0.66-0.82
			c-0.2-0.24-0.33-0.25-0.47-0.25c-0.11,0-0.38,0.09-0.47,0.13c-0.1,0.05-0.14,0.11-0.14,0.11s-0.02,0.13-0.01,0.26
			c0.01,0.13-0.02,0.33-0.06,0.45c-0.05,0.16-0.15,0.24-0.2,0.25c-0.09,0.02-0.24-0.08-0.56-0.48c-0.27-0.34-0.57-0.99-0.67-1.31
			c-0.1-0.32-0.22-0.71-0.22-0.78c-0.01-0.06-0.01-0.13-0.03-0.16c-0.01-0.03-0.02-0.07-0.02-0.13c0-0.06-0.02-0.1-0.02-0.1
			s-0.04-0.41-0.06-0.58c-0.02-0.16-0.04-0.83-0.07-1.02c-0.03-0.19-0.21-0.25-0.38-0.21c-0.16,0.04-0.36,0.11-0.52,0.21
			c-0.16,0.1-0.22,0.28-0.2,0.5c0.01,0.2,0.14,0.77,0.17,0.92c0.02,0.1,0.01,0.2,0.04,0.29c0.03,0.09-0.01,0.25-0.03,0.4
			c-0.03,0.15-0.13,0.38-0.19,0.52c-0.06,0.14-0.21,0.46-0.24,0.51c-0.03,0.05-0.16,0.29-0.2,0.38c-0.03,0.05-0.14,0.25-0.25,0.42
			c-0.1,0.15-0.45,0.65-0.63,0.83c-0.18,0.19-0.43,0.33-0.52,0.34c-0.1,0.01-0.17-0.02-0.25-0.08c-0.1-0.08-0.27-0.42-0.33-0.54
			c-0.06-0.12-0.2-0.38-0.2-0.38s-0.05-0.08-0.16-0.12c-0.11-0.04-0.27-0.01-0.4,0.03c-0.18,0.06-0.34,0.13-0.51,0.22
			c-0.12,0.06-0.31,0.19-0.35,0.15c-0.05-0.04,0-0.11-0.05-0.28c-0.04-0.17-0.19-0.2-0.35-0.19c-0.16,0.01-0.19-0.12-0.23-0.21
			c-0.04-0.1-0.09-0.18-0.19-0.22c-0.09-0.03-0.21-0.06-0.31-0.04c-0.09,0.02-0.2,0.09-0.3,0.16c-0.09,0.08-0.28,0.26-0.36,0.35
			c-0.08,0.09-0.15,0.12-0.15,0.12s-0.07-0.02-0.18-0.07c-0.1-0.05-0.29-0.15-0.42-0.26c-0.12-0.11-0.23-0.24-0.23-0.24
			s-0.01-0.28-0.01-0.37c0-0.21-0.08-0.64-0.13-0.84c-0.05-0.2-0.2-0.57-0.23-0.67c-0.03-0.09-0.06-0.2-0.12-0.29
			c-0.06-0.1-0.32-0.49-0.4-0.6c-0.08-0.11-0.31-0.33-0.33-0.37c-0.02-0.04-0.02,0.02-0.13-0.09c-0.12-0.11-0.35-0.22-0.45-0.21
			l-0.17,0.03c-0.13,0.05-0.25,0.12-0.35,0.21c-0.1,0.08-0.12,0.24-0.12,0.35c0,0.1,0.03,0.33,0.05,0.4
			c0.03,0.09,0.01,0.11-0.03,0.17c0,0-0.16,0.1-0.31,0.21c-0.15,0.11-0.44,0.35-0.61,0.53c-0.18,0.18-0.41,0.51-0.56,0.79
			c-0.15,0.27-0.27,0.63-0.32,0.82c-0.04,0.12-0.08,0.38-0.08,0.5c-0.01,0.12,0,0.24,0.05,0.45c0.04,0.21,0.18,0.43,0.28,0.62
			c0.1,0.19,0.25,0.34,0.36,0.45c0.1,0.11,0.27,0.2,0.4,0.25c0.12,0.05,0.43,0.08,0.6,0.09c0.1,0.01,0.35-0.04,0.42-0.04
			c0.03,0,0.25-0.07,0.32-0.09c0.06-0.02,0.19-0.07,0.31-0.1c0.16-0.05,0.44-0.24,0.47-0.27c0.02-0.01,0.07-0.05,0.14-0.11
			c0.07-0.06,0.13-0.13,0.24-0.23c0.11-0.1,0.25-0.31,0.33-0.44c0.08-0.12,0.18-0.26,0.18-0.26s0.13,0.08,0.23,0.12
			c0.09,0.04,0.25,0.12,0.32,0.17c0.07,0.05,0.15,0.11,0.09,0.25c-0.02,0.06-0.08,0.19-0.14,0.3c-0.06,0.12-0.08,0.23-0.07,0.31
			c0.01,0.08,0.03,0.1,0.08,0.14c0.04,0.03,0.06,0.04,0.09,0.04c0.08,0.02,0.05,0,0.23-0.03c0.12-0.02,0.51-0.15,0.64-0.19
			c0.13-0.04,0.18-0.06,0.33-0.12c0.12-0.05,0.17,0.08,0.12,0.19c-0.02,0.05-0.07,0.13-0.1,0.22c-0.01,0.05-0.06,0.12-0.07,0.2
			c-0.02,0.07-0.03,0.14-0.04,0.16c-0.01,0.03-0.03,0.04-0.05,0.07c-0.04,0.07-0.09,0.21-0.14,0.34c-0.05,0.13-0.19,0.5-0.23,0.62
			c-0.04,0.11-0.13,0.51-0.15,0.6c-0.02,0.09-0.04,0.18-0.05,0.23c-0.01,0.05-0.03,0.22-0.04,0.33c-0.01,0.11-0.03,0.41-0.03,0.63
			c0,0.22,0.01,0.47,0.04,0.66c0.04,0.19,0.08,0.35,0.12,0.41c0.04,0.06,0.09,0.25,0.17,0.32c0.04,0.04,0.17,0.1,0.32,0.1
			s0.29-0.09,0.38-0.13c0.09-0.04,0.17-0.17,0.18-0.18c0.01-0.01,0.17-0.27,0.41-0.84c0.24-0.57,0.33-1.49,0.36-1.87
			c0.03-0.38,0.01-0.98,0-1.29c0-0.31-0.07-0.94-0.07-1c0-0.06-0.02-0.05-0.01-0.11c0.02-0.06,0.1-0.12,0.14-0.14
			c0.05-0.03,0.11-0.06,0.18-0.09c0.06-0.03,0.17-0.06,0.23-0.06c0.06,0,0.09,0.03,0.12,0.09c0.03,0.05,0.06,0.11,0.1,0.19
			c0.06,0.13,0.18,0.36,0.31,0.47c0.08,0.07,0.17,0.15,0.25,0.18c0.13,0.05,0.31,0.08,0.58,0.08c0.27,0.01,0.53-0.11,0.62-0.15
			c0.09-0.04,0.26-0.16,0.29-0.18c0.04-0.02,0.2-0.15,0.31-0.25c0.11-0.1,0.4-0.44,0.5-0.56c0.1-0.13,0.33-0.46,0.45-0.66
			c0.12-0.2,0.32-0.51,0.41-0.67c0.08-0.13,0.09-0.17,0.12-0.22c0,0,0.06,0.08,0.1,0.11c0.04,0.04,0.07,0.16,0.14,0.3
			c0.07,0.14,0.19,0.35,0.26,0.45c0.15,0.22,0.31,0.46,0.57,0.76c0.2,0.23,0.44,0.38,0.61,0.46c0.18,0.08,0.32,0.1,0.43,0.1
			c0.11,0,0.18-0.01,0.28-0.04c0.11-0.02,0.27-0.14,0.39-0.24c0.12-0.1,0.31-0.37,0.31-0.37s0.09,0.06,0.18,0.16
			c0.09,0.09,0.15,0.17,0.22,0.25c0.06,0.08,0.14,0.16,0.21,0.24c0.07,0.07,0.13,0.12,0.17,0.16c0.1,0.08,0.14,0.11,0.26,0.13
			c0.12,0.03,0.21,0.02,0.3,0.01c0.08-0.01,0.2-0.05,0.26-0.08c0.06-0.02,0.15-0.05,0.2-0.08c0.07-0.04,0.14-0.13,0.18-0.21
			c0.06-0.11,0.22-0.44,0.32-0.79c0.09-0.35,0.14-0.65,0.15-0.78c0.01-0.08,0.02-0.11,0.17-0.18c0.15-0.07,0.23-0.12,0.3-0.2
			c0.07-0.08,0.14-0.21,0.13-0.25C73.63,20.1,73.4,20.09,73.29,20.07"/>
	</g>
</g>
</svg>
