<!-- Generator: Adobe Illustrator 25.0.0, SVG Export Plug-In  -->
<svg version="1.1" xmlns="http://www.w3.org/2000/svg" xmlns:xlink="http://www.w3.org/1999/xlink" x="0px" y="0px"
	 width="353.81px" height="286.3px" viewBox="0 0 353.81 286.3" style="overflow:visible;enable-background:new 0 0 353.81 286.3;"
	 xml:space="preserve">
<defs>
</defs>
<g>
	<g>
		<g>
			<path d="M108.23,137.57c2.38,1.46,5.85,2.68,9.51,2.68c5.43,0,8.6-2.87,8.6-7.01c0-3.84-2.2-6.04-7.75-8.17
				c-6.71-2.38-10.86-5.85-10.86-11.65c0-6.4,5.31-11.16,13.3-11.16c4.21,0,7.26,0.98,9.09,2.01l-1.46,4.33
				c-1.34-0.73-4.09-1.95-7.81-1.95c-5.61,0-7.75,3.35-7.75,6.16c0,3.84,2.5,5.73,8.17,7.93c6.95,2.68,10.49,6.04,10.49,12.08
				c0,6.34-4.7,11.83-14.39,11.83c-3.96,0-8.29-1.16-10.49-2.62L108.23,137.57z"/>
			<path d="M142.2,130.25c0.12,7.26,4.76,10.25,10.12,10.25c3.84,0,6.16-0.67,8.17-1.53l0.92,3.84c-1.89,0.85-5.12,1.83-9.82,1.83
				c-9.09,0-14.52-5.98-14.52-14.88s5.25-15.92,13.84-15.92c9.64,0,12.2,8.48,12.2,13.91c0,1.1-0.12,1.95-0.18,2.5H142.2z
				 M157.93,126.41c0.06-3.42-1.4-8.72-7.44-8.72c-5.43,0-7.81,5-8.23,8.72H157.93z"/>
			<path d="M171.83,114.52l5.79,16.59c0.98,2.68,1.77,5.12,2.38,7.56h0.18c0.67-2.44,1.52-4.88,2.5-7.56l5.73-16.59h5.61
				l-11.59,29.52h-5.12l-11.22-29.52H171.83z"/>
			<path d="M201.47,130.25c0.12,7.26,4.76,10.25,10.12,10.25c3.84,0,6.16-0.67,8.17-1.53l0.92,3.84c-1.89,0.85-5.12,1.83-9.82,1.83
				c-9.09,0-14.52-5.98-14.52-14.88s5.25-15.92,13.84-15.92c9.64,0,12.2,8.48,12.2,13.91c0,1.1-0.12,1.95-0.18,2.5H201.47z
				 M217.21,126.41c0.06-3.42-1.4-8.72-7.44-8.72c-5.43,0-7.81,5-8.23,8.72H217.21z"/>
			<path d="M229.04,122.5c0-3.05-0.06-5.55-0.24-7.99h4.76l0.3,4.88h0.12c1.46-2.81,4.88-5.55,9.76-5.55
				c4.09,0,10.43,2.44,10.43,12.56v17.63h-5.37v-17.02c0-4.76-1.77-8.72-6.83-8.72c-3.54,0-6.28,2.5-7.2,5.49
				c-0.24,0.67-0.37,1.58-0.37,2.5v17.75h-5.37V122.5z"/>
		</g>
	</g>
	<g>
		<path d="M27.81,38.98c-15.25,0.3-18.84,4.78-21.83,11.36c-0.6,0.9-1.5,1.5-2.39,1.5c-1.49,0-3.59-1.2-3.59-2.39
			C11.06,16.26,11.36,0,14.05,0c4.48,0,6.28,2.39,20.33,2.39c32.59,0,92.38,0.5,93.88,0.5c1.2,0,2.99,0.6,1.79,3.29
			C106.44,58.51,43.54,162.25,43.54,207.1c0,10.46-9.57,16.15-18.84,16.15c-9.57,0-19.13-5.68-19.13-18.54
			c0-43.95,85.62-141.42,94.89-165.34C89.69,40.87,67.27,38.08,27.81,38.98z"/>
	</g>
	<g>
		<path d="M76.07,248.33c0,3.2-0.84,6.42-2.52,9.66c-1.68,3.24-3.85,5.89-6.51,7.93c-2.66,2.05-5.29,3.07-7.88,3.07
			c-2.19,0-4.07-0.98-5.63-2.93c-1.57-1.96-2.35-4.4-2.35-7.33c0-3.2,0.83-6.42,2.5-9.66c1.67-3.24,3.82-5.9,6.47-7.97
			c2.65-2.07,5.27-3.1,7.87-3.1c2.19,0,4.08,0.98,5.67,2.95C75.28,242.92,76.07,245.38,76.07,248.33z M70.57,243.97
			c0-1.45-0.18-2.44-0.55-2.97c-0.37-0.53-1.03-0.79-2-0.79c-1.5,0-3.18,1.23-5.05,3.69c-1.87,2.46-3.39,5.45-4.58,8.97
			c-1.19,3.52-1.78,6.9-1.78,10.15c0,1.48,0.19,2.48,0.57,3.02c0.38,0.54,1.06,0.8,2.05,0.8c1.48,0,3.14-1.22,5-3.67
			c1.86-2.45,3.38-5.44,4.56-8.97C69.98,250.67,70.57,247.26,70.57,243.97z"/>
		<path d="M112.36,221.67c0,0.94-0.34,1.76-1.02,2.45c-0.68,0.69-1.51,1.04-2.5,1.04c-0.76,0-1.7-0.39-2.81-1.17
			c-1.14-0.78-2.1-1.17-2.88-1.17c-1.47,0-2.68,0.32-3.62,0.97s-1.73,1.72-2.38,3.22s-1.5,4.65-2.55,9.46
			c-0.36,1.68-0.64,2.97-0.84,3.89h7.43c0.25,0,0.41,0.07,0.48,0.2c0.08,0.13,0.12,0.42,0.12,0.87c0,0.45-0.12,0.86-0.35,1.24
			c-0.23,0.38-0.47,0.57-0.72,0.57l-7.58-0.13l-5.54,23.08c-0.96,4.05-2.26,7.56-3.88,10.55s-3.49,5.33-5.61,7.03
			s-4.15,2.55-6.1,2.55c-1.59,0-2.95-0.4-4.08-1.19c-1.13-0.79-1.7-1.72-1.7-2.77c0-1.92,0.96-2.88,2.88-2.88
			c0.8,0,1.78,0.5,2.92,1.51c1.14,1.01,2.11,1.51,2.92,1.51c1.41,0,2.5-0.55,3.27-1.64s1.54-3.45,2.3-7.08l6.37-29.85v-0.24
			c0-0.38-0.22-0.57-0.67-0.57h-5.37c-0.4,0-0.6-0.29-0.6-0.87c0-0.36,0.25-0.63,0.74-0.81c4.61-0.54,6.96-1.23,7.05-2.08
			c0.69-3.4,2.07-6.8,4.14-10.21s4.41-6.07,7.03-7.97s5.29-2.85,8.02-2.85C110.65,218.31,112.36,219.43,112.36,221.67z"/>
	</g>
	<g>
		<path d="M162.4,71.13h0.83c0,0.83,0.01,1.64,0.02,2.45c0.01,0.81,0.02,1.63,0.02,2.45l5.92-0.14v1.97l-5.92,0.18v8.67
			c0,1.53,0.14,2.68,0.44,3.46c0.29,0.78,1,1.14,2.13,1.08c0.46,0,0.97-0.07,1.54-0.21s1.2-0.47,1.9-0.99l0.41,0.64
			c-0.52,0.79-1.26,1.54-2.22,2.22c-0.96,0.69-2.25,1.03-3.88,1.03s-2.79-0.42-3.51-1.26c-0.72-0.84-1.08-2.35-1.08-4.52V78.15
			c-0.43,0-0.84,0.01-1.24,0.02c-0.4,0.02-0.81,0.02-1.24,0.02c-0.43,0-0.65-0.17-0.66-0.5c-0.02-0.34,0.19-0.6,0.62-0.78
			c0.64-0.28,1.23-0.57,1.76-0.87c0.54-0.3,0.97-0.63,1.31-0.96c0.34-0.34,0.81-0.84,1.42-1.51
			C161.59,72.89,162.07,72.08,162.4,71.13z"/>
		<path d="M174.01,68.15c0-0.86-0.25-1.46-0.73-1.81s-1.27-0.65-2.34-0.89v-0.83c0.31,0,0.71-0.05,1.22-0.14
			c0.5-0.09,1.05-0.21,1.63-0.34c0.58-0.14,1.17-0.3,1.77-0.5c0.6-0.2,1.14-0.42,1.63-0.67h1.1v16c0.95-1.25,1.92-2.21,2.91-2.87
			c0.99-0.66,2.12-1.03,3.37-1.12c0.24,0,0.49,0,0.73,0c0.24,0,0.49,0.02,0.73,0.05c1.5,0.12,2.67,0.7,3.53,1.74
			c0.86,1.04,1.28,2.51,1.28,4.4v9.36c0,0.31,0.06,0.58,0.18,0.83c0.12,0.25,0.44,0.44,0.96,0.6l1.56,0.46v1.01
			c-0.95-0.06-1.84-0.11-2.68-0.14c-0.84-0.03-1.54-0.05-2.09-0.05c-0.52,0-1.23,0.02-2.13,0.05c-0.9,0.03-1.83,0.08-2.77,0.14
			v-1.01l1.6-0.5c0.43-0.15,0.72-0.34,0.87-0.57c0.15-0.23,0.23-0.6,0.23-1.12v-8.67c0-1.13-0.26-2.02-0.78-2.66
			s-1.36-0.96-2.52-0.96s-2.15,0.35-2.96,1.05c-0.81,0.7-1.49,1.48-2.04,2.34v8.9c0,0.34,0.06,0.63,0.18,0.87
			c0.12,0.25,0.35,0.43,0.69,0.55l2.43,0.78v1.01c-0.49-0.06-1.21-0.11-2.16-0.14c-0.95-0.03-2-0.05-3.16-0.05
			c-1.13,0-2.13,0.02-3,0.05c-0.87,0.03-1.55,0.08-2.04,0.14v-1.01l1.83-0.5c0.4-0.12,0.66-0.31,0.78-0.55
			c0.12-0.24,0.18-0.55,0.18-0.92V68.15z"/>
		<path d="M212.3,82.18h-11.97c-0.06,0.31-0.1,0.54-0.12,0.69s-0.02,0.38-0.02,0.69c0,1.07,0.15,2.05,0.46,2.93
			c0.3,0.89,0.73,1.65,1.28,2.29c0.55,0.64,1.22,1.14,2,1.49s1.66,0.53,2.64,0.53c1.07,0,2.06-0.18,2.96-0.53
			c0.9-0.35,1.86-1.02,2.87-2l0.18,0.87c-0.43,0.67-0.91,1.3-1.44,1.88c-0.54,0.58-1.14,1.09-1.81,1.54
			c-0.67,0.44-1.44,0.79-2.29,1.03c-0.86,0.25-1.82,0.37-2.89,0.37c-1.22,0-2.34-0.23-3.35-0.69c-1.01-0.46-1.88-1.11-2.61-1.95
			c-0.73-0.84-1.31-1.84-1.72-3c-0.41-1.16-0.62-2.43-0.62-3.81c0-1.41,0.22-2.69,0.67-3.85c0.44-1.16,1.06-2.17,1.86-3.03
			c0.79-0.86,1.76-1.52,2.89-2c1.13-0.47,2.38-0.71,3.76-0.71c1.19,0,2.23,0.18,3.12,0.55s1.63,0.88,2.22,1.54
			c0.6,0.66,1.05,1.43,1.38,2.32C212.05,80.23,212.24,81.17,212.3,82.18z M200.56,80.76h5.41c0.61,0,1.08-0.08,1.4-0.23
			s0.44-0.54,0.34-1.15c-0.09-0.86-0.34-1.6-0.76-2.22c-0.41-0.63-1.11-0.94-2.09-0.94c-1.1,0-2.02,0.39-2.75,1.17
			C201.38,78.17,200.86,79.29,200.56,80.76z"/>
	</g>
	<g>
		<path d="M115.74,182.36l-4.7,12.81c-0.2,0.65-0.24,1.13-0.12,1.43c0.12,0.3,0.73,0.5,1.83,0.58l4.09,0.3v1.46
			c-0.41-0.04-1.23-0.07-2.47-0.09c-1.24-0.02-2.92-0.03-5.03-0.03c-2.11,0-3.79,0.01-5.03,0.03c-1.24,0.02-2.06,0.05-2.47,0.09
			v-1.46l3.84-0.3c1.34-0.12,2.28-0.87,2.81-2.26l14.03-36.35h2.5l13.48,35.92c0.28,0.69,0.55,1.16,0.79,1.4s0.69,0.47,1.34,0.67
			l3.35,1.04v1.4c-0.77-0.04-1.82-0.08-3.14-0.12c-1.32-0.04-2.75-0.06-4.3-0.06h-4.33c-2.68,0-4.94,0.06-6.77,0.18v-1.4l3.96-0.61
			c0.57-0.08,1.02-0.17,1.34-0.27c0.32-0.1,0.54-0.24,0.64-0.43c0.1-0.18,0.13-0.41,0.09-0.67c-0.04-0.26-0.14-0.6-0.3-1.01
			l-4.51-12.26H115.74z M125.8,180.17l-4.39-13.11l-4.82,13.11H125.8z"/>
		<path d="M154.16,169.43h1.1c0,1.1,0.01,2.19,0.03,3.26c0.02,1.08,0.03,2.17,0.03,3.26l7.87-0.18v2.62l-7.87,0.24v11.53
			c0,2.03,0.19,3.57,0.58,4.6c0.39,1.04,1.33,1.51,2.84,1.43c0.61,0,1.29-0.09,2.04-0.27s1.6-0.62,2.53-1.31l0.55,0.85
			c-0.69,1.06-1.68,2.04-2.96,2.96c-1.28,0.92-3,1.37-5.15,1.37c-2.16,0-3.71-0.56-4.67-1.68c-0.96-1.12-1.43-3.12-1.43-6.01v-13.36
			c-0.57,0-1.12,0.01-1.65,0.03c-0.53,0.02-1.08,0.03-1.65,0.03c-0.57,0-0.86-0.22-0.88-0.67c-0.02-0.45,0.25-0.79,0.82-1.04
			c0.85-0.37,1.64-0.75,2.35-1.16c0.71-0.41,1.29-0.83,1.74-1.28s1.08-1.12,1.89-2.01C153.08,171.77,153.71,170.69,154.16,169.43z"
			/>
		<path d="M174.47,169.43h1.1c0,1.1,0.01,2.19,0.03,3.26c0.02,1.08,0.03,2.17,0.03,3.26l7.87-0.18v2.62l-7.87,0.24v11.53
			c0,2.03,0.19,3.57,0.58,4.6c0.39,1.04,1.33,1.51,2.84,1.43c0.61,0,1.29-0.09,2.04-0.27s1.6-0.62,2.53-1.31l0.55,0.85
			c-0.69,1.06-1.68,2.04-2.96,2.96c-1.28,0.92-3,1.37-5.15,1.37c-2.16,0-3.71-0.56-4.67-1.68c-0.96-1.12-1.43-3.12-1.43-6.01v-13.36
			c-0.57,0-1.12,0.01-1.65,0.03c-0.53,0.02-1.08,0.03-1.65,0.03c-0.57,0-0.86-0.22-0.88-0.67c-0.02-0.45,0.25-0.79,0.82-1.04
			c0.85-0.37,1.64-0.75,2.35-1.16c0.71-0.41,1.29-0.83,1.74-1.28s1.08-1.12,1.89-2.01C173.39,171.77,174.02,170.69,174.47,169.43z"
			/>
		<path d="M185.87,199.07v-0.98l2.32-0.55c0.81-0.24,1.33-0.56,1.55-0.95c0.22-0.39,0.34-1.11,0.34-2.17v-11.71
			c0-0.81-0.16-1.41-0.49-1.8c-0.33-0.39-1.1-0.68-2.32-0.88l-1.28-0.24l0.06-1.04c1.59-0.45,3.15-1.12,4.7-2.01
			c1.54-0.89,2.78-2.11,3.72-3.66h1.1l0.24,7.2c0.32-0.73,0.69-1.39,1.1-1.98c0.41-0.59,0.95-1.25,1.65-1.98
			c0.69-0.73,1.35-1.22,1.98-1.46c0.63-0.24,1.21-0.37,1.74-0.37c1.02,0,1.86,0.3,2.53,0.88c0.67,0.59,1.01,1.47,1.01,2.65
			c0,1.1-0.25,1.96-0.76,2.59c-0.51,0.63-1.23,0.95-2.17,0.95c-0.49,0-0.91-0.11-1.28-0.34c-0.37-0.22-0.7-0.48-1.01-0.76
			c-0.31-0.28-0.6-0.54-0.88-0.76c-0.29-0.22-0.55-0.33-0.79-0.33c-0.37,0-0.71,0.15-1.04,0.46c-0.33,0.3-0.63,0.68-0.92,1.13
			c-0.29,0.45-0.52,0.95-0.7,1.49s-0.29,1.07-0.33,1.56c-0.04,0.41-0.08,0.77-0.12,1.1c-0.04,0.33-0.04,0.63,0,0.92v8.54
			c0,1.02,0.18,1.68,0.55,1.98c0.37,0.31,1.1,0.6,2.2,0.88l3.11,0.61v0.98c-0.98-0.08-2.07-0.13-3.29-0.15
			c-1.22-0.02-2.46-0.03-3.72-0.03h-1.16c-1.34,0-2.66,0.02-3.96,0.06C188.23,198.93,187.01,198.99,185.87,199.07z"/>
		<path d="M222.52,199.07c-0.65-0.08-1.59-0.14-2.81-0.18c-1.22-0.04-2.64-0.06-4.27-0.06s-3.05,0.02-4.27,0.06
			c-1.22,0.04-2.16,0.1-2.81,0.18v-1.34l2.75-0.61c1.26-0.24,1.89-1,1.89-2.26V183.4c0-0.98-0.24-1.69-0.73-2.13
			s-1.46-0.83-2.93-1.16v-1.22c0.73-0.16,1.48-0.4,2.26-0.7c0.77-0.3,1.52-0.65,2.26-1.04c0.73-0.39,1.4-0.8,2.01-1.25
			c0.61-0.45,1.1-0.93,1.46-1.46c0.24,0,0.48,0.01,0.7,0.03s0.44,0.03,0.64,0.03v20.55c0,0.61,0.09,1.07,0.27,1.37
			c0.18,0.3,0.54,0.52,1.07,0.64l2.5,0.67V199.07z M216.12,161.57c0.93,0,1.74,0.33,2.41,1.01s1.01,1.47,1.01,2.41
			c0,0.81-0.35,1.55-1.04,2.23c-0.69,0.67-1.5,1.01-2.44,1.01c-0.94,0-1.71-0.31-2.32-0.95c-0.61-0.63-0.92-1.39-0.92-2.29
			c0-0.94,0.33-1.74,0.98-2.41S215.22,161.57,216.12,161.57z"/>
		<path d="M224.84,161.81l0.18-1.34l9.63-1.89v18.05c1.38-0.65,2.68-1.17,3.9-1.56c1.22-0.39,2.46-0.58,3.72-0.58
			c1.75,0,3.32,0.3,4.73,0.92c1.4,0.61,2.57,1.45,3.51,2.53c0.94,1.08,1.66,2.37,2.17,3.87c0.51,1.5,0.76,3.15,0.76,4.94
			c0,2.07-0.3,3.92-0.92,5.55c-0.61,1.63-1.47,2.99-2.59,4.09s-2.45,1.94-3.99,2.53c-1.55,0.59-3.23,0.88-5.06,0.88
			c-0.89,0-1.74-0.11-2.53-0.33c-0.79-0.22-1.52-0.46-2.2-0.7s-1.26-0.48-1.77-0.7c-0.51-0.22-0.91-0.34-1.19-0.34
			c-0.53,0-1,0.19-1.4,0.58c-0.41,0.39-0.83,0.99-1.28,1.8h-1.65v-32.32c0-0.81,0-1.5,0-2.07s-0.11-1.08-0.34-1.52
			s-0.61-0.85-1.16-1.22S225.97,162.22,224.84,161.81z M234.65,191.81c0,3.58,1.79,5.37,5.37,5.37c2.32,0,4.08-0.87,5.3-2.62
			c1.22-1.75,1.83-3.96,1.83-6.65c0-1.46-0.17-2.83-0.52-4.12c-0.35-1.28-0.84-2.41-1.49-3.38c-0.65-0.98-1.47-1.75-2.47-2.32
			c-1-0.57-2.12-0.85-3.38-0.85c-1.3,0-2.4,0.27-3.29,0.79c-0.89,0.53-1.34,1.08-1.34,1.65V191.81z"/>
		<path d="M256.49,175.59h9.7v15.06c0,1.95,0.34,3.33,1.01,4.15s1.74,1.22,3.2,1.22c1.14,0,2.17-0.19,3.11-0.58
			c0.93-0.39,1.87-1.01,2.81-1.86v-14.33c0-0.37-0.04-0.66-0.12-0.88c-0.08-0.22-0.29-0.43-0.61-0.61
			c-0.33-0.18-0.81-0.33-1.46-0.46s-1.54-0.24-2.68-0.37v-1.34h10.67v17.56c0,0.69,0.03,1.24,0.09,1.65
			c0.06,0.41,0.22,0.71,0.49,0.91c0.26,0.2,0.66,0.35,1.19,0.43c0.53,0.08,1.26,0.12,2.2,0.12c0,0.2,0.01,0.42,0.03,0.64
			c0.02,0.22,0.03,0.44,0.03,0.64l-9.82,2.2v-4.63c-0.77,0.77-1.5,1.45-2.2,2.04c-0.69,0.59-1.38,1.08-2.07,1.46
			s-1.41,0.68-2.17,0.88c-0.75,0.2-1.6,0.3-2.53,0.3c-2.32,0-4.05-0.75-5.18-2.26c-1.14-1.5-1.71-3.5-1.71-5.98v-12.38
			c0-0.37-0.05-0.66-0.15-0.88c-0.1-0.22-0.28-0.43-0.55-0.61c-0.26-0.18-0.66-0.34-1.19-0.46c-0.53-0.12-1.22-0.26-2.07-0.43
			V175.59z"/>
		<path d="M297.4,169.43h1.1c0,1.1,0.01,2.19,0.03,3.26c0.02,1.08,0.03,2.17,0.03,3.26l7.87-0.18v2.62l-7.87,0.24v11.53
			c0,2.03,0.19,3.57,0.58,4.6c0.39,1.04,1.33,1.51,2.84,1.43c0.61,0,1.29-0.09,2.04-0.27s1.6-0.62,2.53-1.31l0.55,0.85
			c-0.69,1.06-1.68,2.04-2.96,2.96c-1.28,0.92-3,1.37-5.15,1.37c-2.16,0-3.71-0.56-4.67-1.68c-0.96-1.12-1.43-3.12-1.43-6.01v-13.36
			c-0.57,0-1.12,0.01-1.65,0.03c-0.53,0.02-1.08,0.03-1.65,0.03c-0.57,0-0.86-0.22-0.88-0.67c-0.02-0.45,0.25-0.79,0.82-1.04
			c0.85-0.37,1.64-0.75,2.35-1.16c0.71-0.41,1.29-0.83,1.74-1.28s1.08-1.12,1.89-2.01C296.33,171.77,296.96,170.69,297.4,169.43z"/>
		<path d="M331.37,184.13h-15.92c-0.08,0.41-0.13,0.71-0.15,0.91c-0.02,0.2-0.03,0.51-0.03,0.92c0,1.42,0.2,2.72,0.61,3.9
			c0.41,1.18,0.98,2.2,1.71,3.05c0.73,0.85,1.62,1.51,2.65,1.98c1.04,0.47,2.2,0.7,3.51,0.7c1.42,0,2.73-0.23,3.93-0.7
			c1.2-0.47,2.47-1.35,3.81-2.65l0.24,1.16c-0.57,0.89-1.21,1.73-1.92,2.5c-0.71,0.77-1.52,1.45-2.41,2.04
			c-0.89,0.59-1.91,1.05-3.05,1.37c-1.14,0.33-2.42,0.49-3.84,0.49c-1.63,0-3.11-0.3-4.45-0.91c-1.34-0.61-2.5-1.47-3.48-2.59
			c-0.98-1.12-1.74-2.45-2.29-4c-0.55-1.54-0.82-3.23-0.82-5.06c0-1.87,0.29-3.58,0.88-5.12c0.59-1.54,1.41-2.89,2.47-4.02
			c1.06-1.14,2.34-2.02,3.84-2.65c1.5-0.63,3.17-0.95,5-0.95c1.59,0,2.97,0.24,4.15,0.73c1.18,0.49,2.17,1.17,2.96,2.04
			c0.79,0.88,1.4,1.9,1.83,3.08C331.04,181.53,331.29,182.79,331.37,184.13z M315.76,182.24h7.2c0.81,0,1.43-0.1,1.86-0.3
			s0.58-0.71,0.46-1.53c-0.12-1.14-0.46-2.12-1.01-2.96c-0.55-0.83-1.47-1.25-2.77-1.25c-1.46,0-2.68,0.52-3.66,1.55
			S316.17,180.29,315.76,182.24z"/>
		<path d="M350.7,182.06c-0.12-0.61-0.34-1.24-0.64-1.89s-0.7-1.25-1.19-1.8c-0.49-0.55-1.06-1.01-1.71-1.37
			c-0.65-0.37-1.4-0.55-2.26-0.55c-1.18,0-2.18,0.24-2.99,0.73c-0.81,0.49-1.22,1.34-1.22,2.56c0,1.18,0.56,2.08,1.68,2.71
			c1.12,0.63,2.69,1.25,4.73,1.86c2.52,0.81,4.27,1.83,5.24,3.05s1.46,2.64,1.46,4.27c0,1.42-0.27,2.65-0.82,3.69
			c-0.55,1.04-1.28,1.89-2.2,2.56c-0.92,0.67-1.97,1.16-3.17,1.46s-2.45,0.46-3.75,0.46c-1.46,0-2.84-0.13-4.12-0.4
			c-1.28-0.26-2.39-0.66-3.32-1.19l-0.61-7.26h1.34c0.57,2.2,1.48,3.89,2.74,5.09c1.26,1.2,2.78,1.8,4.57,1.8
			c1.3,0,2.42-0.33,3.35-1.01c0.93-0.67,1.4-1.66,1.4-2.96c0-1.18-0.45-2.11-1.34-2.8s-2.32-1.32-4.27-1.89
			c-2.89-0.81-4.91-1.81-6.07-2.99c-1.16-1.18-1.74-2.76-1.74-4.76c0-1.1,0.26-2.08,0.79-2.96c0.53-0.87,1.22-1.61,2.07-2.2
			c0.85-0.59,1.85-1.04,2.99-1.34c1.14-0.31,2.32-0.46,3.54-0.46c1.26,0,2.46,0.12,3.6,0.37c1.14,0.24,2.11,0.61,2.93,1.1l0.37,6.1
			H350.7z"/>
	</g>
	<g>
		<path d="M138.23,217.79c0.28-1.1,0.58-1.64,0.88-1.62c0.31,0.02,0.66,0.44,1.07,1.25c0.24,0.41,0.45,0.72,0.61,0.95
			c0.16,0.22,0.36,0.39,0.58,0.49c0.22,0.1,0.48,0.16,0.76,0.18c0.28,0.02,0.65,0.03,1.1,0.03h23.6c0.73,0,1.32-0.02,1.77-0.06
			c0.45-0.04,0.81-0.12,1.1-0.24c0.28-0.12,0.5-0.29,0.64-0.52c0.14-0.22,0.31-0.54,0.52-0.95c0.37-0.77,0.71-1.16,1.04-1.16
			c0.53,0,0.79,0.41,0.79,1.22l-0.12,10.43c0,0.33-0.05,0.58-0.15,0.76c-0.1,0.18-0.24,0.24-0.43,0.18
			c-0.18-0.06-0.38-0.26-0.58-0.61s-0.39-0.92-0.55-1.74c-0.2-0.81-0.41-1.51-0.61-2.1c-0.21-0.59-0.51-1.08-0.91-1.46
			c-0.41-0.39-0.95-0.67-1.62-0.85c-0.67-0.18-1.54-0.27-2.59-0.27h-6.77v30.25c0,1.06,0.13,1.78,0.4,2.17
			c0.26,0.39,0.82,0.68,1.68,0.88l4.76,1.04v1.34c-1.06-0.08-2.59-0.13-4.6-0.15c-2.01-0.02-4.24-0.03-6.68-0.03
			c-2.4,0-4.47,0.01-6.22,0.03c-1.75,0.02-2.87,0.07-3.35,0.15v-1.34l4.45-0.85c1.18-0.2,1.95-0.56,2.32-1.07
			c0.37-0.51,0.55-1.25,0.55-2.23V221.7h-6.77c-0.69-0.04-1.29,0-1.8,0.12c-0.51,0.12-1.01,0.39-1.49,0.79
			c-0.49,0.41-1.03,0.97-1.62,1.68c-0.59,0.71-1.27,1.64-2.04,2.78c-0.53,0.77-0.94,1.26-1.22,1.46c-0.29,0.2-0.47,0.21-0.55,0.03
			c-0.08-0.18-0.1-0.51-0.06-0.98c0.04-0.47,0.12-0.99,0.24-1.56L138.23,217.79z"/>
		<path d="M197.26,242.49h-15.92c-0.08,0.41-0.13,0.71-0.15,0.91c-0.02,0.2-0.03,0.51-0.03,0.92c0,1.42,0.2,2.72,0.61,3.9
			c0.41,1.18,0.98,2.2,1.71,3.05c0.73,0.85,1.62,1.51,2.65,1.98c1.04,0.47,2.2,0.7,3.51,0.7c1.42,0,2.73-0.23,3.93-0.7
			c1.2-0.47,2.47-1.35,3.81-2.65l0.24,1.16c-0.57,0.89-1.21,1.73-1.92,2.5c-0.71,0.77-1.52,1.45-2.41,2.04
			c-0.89,0.59-1.91,1.05-3.05,1.37c-1.14,0.33-2.42,0.49-3.84,0.49c-1.63,0-3.11-0.3-4.45-0.91c-1.34-0.61-2.5-1.47-3.48-2.59
			c-0.98-1.12-1.74-2.45-2.29-4c-0.55-1.54-0.82-3.23-0.82-5.06c0-1.87,0.29-3.58,0.88-5.12c0.59-1.54,1.41-2.89,2.47-4.02
			c1.06-1.14,2.34-2.02,3.84-2.65c1.5-0.63,3.17-0.95,5-0.95c1.59,0,2.97,0.24,4.15,0.73c1.18,0.49,2.17,1.17,2.96,2.04
			c0.79,0.88,1.4,1.9,1.83,3.08C196.93,239.89,197.18,241.15,197.26,242.49z M181.65,240.6h7.2c0.81,0,1.43-0.1,1.86-0.3
			s0.58-0.71,0.46-1.53c-0.12-1.14-0.46-2.12-1.01-2.96c-0.55-0.83-1.47-1.25-2.77-1.25c-1.46,0-2.68,0.52-3.66,1.55
			S182.06,238.65,181.65,240.6z"/>
		<path d="M200.74,257.43v-0.98l2.32-0.55c0.81-0.24,1.33-0.56,1.55-0.95c0.22-0.39,0.34-1.11,0.34-2.17v-11.71
			c0-0.81-0.16-1.41-0.49-1.8c-0.33-0.39-1.1-0.68-2.32-0.88l-1.28-0.24l0.06-1.04c1.59-0.45,3.15-1.12,4.7-2.01
			c1.54-0.89,2.78-2.11,3.72-3.66h1.1l0.24,7.2c0.32-0.73,0.69-1.39,1.1-1.98c0.41-0.59,0.95-1.25,1.65-1.98
			c0.69-0.73,1.35-1.22,1.98-1.46c0.63-0.24,1.21-0.37,1.74-0.37c1.02,0,1.86,0.3,2.53,0.88c0.67,0.59,1.01,1.47,1.01,2.65
			c0,1.1-0.25,1.96-0.76,2.59c-0.51,0.63-1.23,0.95-2.17,0.95c-0.49,0-0.91-0.11-1.28-0.34c-0.37-0.22-0.7-0.48-1.01-0.76
			c-0.31-0.28-0.6-0.54-0.88-0.76c-0.29-0.22-0.55-0.33-0.79-0.33c-0.37,0-0.71,0.15-1.04,0.46c-0.33,0.3-0.63,0.68-0.92,1.13
			c-0.29,0.45-0.52,0.95-0.7,1.49s-0.29,1.07-0.33,1.56c-0.04,0.41-0.08,0.77-0.12,1.1c-0.04,0.33-0.04,0.63,0,0.92v8.54
			c0,1.02,0.18,1.68,0.55,1.98c0.37,0.31,1.1,0.6,2.2,0.88l3.11,0.61v0.98c-0.98-0.08-2.07-0.13-3.29-0.15
			c-1.22-0.02-2.46-0.03-3.72-0.03h-1.16c-1.34,0-2.66,0.02-3.96,0.06C203.09,257.29,201.87,257.35,200.74,257.43z"/>
		<path d="M245.86,242.49h-15.92c-0.08,0.41-0.13,0.71-0.15,0.91c-0.02,0.2-0.03,0.51-0.03,0.92c0,1.42,0.2,2.72,0.61,3.9
			c0.41,1.18,0.98,2.2,1.71,3.05c0.73,0.85,1.62,1.51,2.65,1.98c1.04,0.47,2.2,0.7,3.51,0.7c1.42,0,2.73-0.23,3.93-0.7
			c1.2-0.47,2.47-1.35,3.81-2.65l0.24,1.16c-0.57,0.89-1.21,1.73-1.92,2.5c-0.71,0.77-1.52,1.45-2.41,2.04
			c-0.89,0.59-1.91,1.05-3.05,1.37c-1.14,0.33-2.42,0.49-3.84,0.49c-1.63,0-3.11-0.3-4.45-0.91c-1.34-0.61-2.5-1.47-3.48-2.59
			c-0.98-1.12-1.74-2.45-2.29-4c-0.55-1.54-0.82-3.23-0.82-5.06c0-1.87,0.29-3.58,0.88-5.12c0.59-1.54,1.41-2.89,2.47-4.02
			c1.06-1.14,2.34-2.02,3.84-2.65c1.5-0.63,3.17-0.95,5-0.95c1.59,0,2.97,0.24,4.15,0.73c1.18,0.49,2.17,1.17,2.96,2.04
			c0.79,0.88,1.4,1.9,1.83,3.08C245.53,239.89,245.78,241.15,245.86,242.49z M230.25,240.6h7.2c0.81,0,1.43-0.1,1.86-0.3
			s0.58-0.71,0.46-1.53c-0.12-1.14-0.46-2.12-1.01-2.96c-0.55-0.83-1.47-1.25-2.77-1.25c-1.46,0-2.68,0.52-3.66,1.55
			S230.66,238.65,230.25,240.6z"/>
		<path d="M279.34,257.37c-2.11-0.12-4.37-0.18-6.77-0.18c-2.4,0-4.66,0.06-6.77,0.18v-1.28l2.62-0.49
			c0.89-0.12,1.34-0.92,1.34-2.38v-10.31c0-0.98-0.05-1.86-0.15-2.65c-0.1-0.79-0.3-1.45-0.61-1.98s-0.74-0.93-1.31-1.22
			c-0.57-0.28-1.32-0.43-2.26-0.43c-1.1,0-2.21,0.3-3.32,0.92c-1.12,0.61-2.14,1.4-3.08,2.38v13.96c0,0.65,0.49,1.1,1.46,1.34
			l2.5,0.85v1.28c-0.69-0.08-1.39-0.13-2.1-0.15c-0.71-0.02-1.7-0.03-2.96-0.03h-1.95c-1.34,0-2.62,0.01-3.84,0.03
			c-1.22,0.02-2.17,0.07-2.87,0.15v-1.28l2.87-0.61c0.81-0.2,1.22-0.81,1.22-1.83v-12.07c0-1.26-0.25-2.11-0.76-2.56
			c-0.51-0.45-1.41-0.77-2.71-0.98v-1.1c0.65-0.16,1.35-0.38,2.1-0.64c0.75-0.26,1.48-0.61,2.2-1.04s1.38-0.92,2.01-1.49
			c0.63-0.57,1.13-1.24,1.49-2.01h1.34v5.73c1.34-1.42,2.81-2.55,4.42-3.38c1.61-0.83,3.12-1.25,4.54-1.25
			c2.36,0,4.2,0.69,5.52,2.07c1.32,1.38,1.98,3.48,1.98,6.28v11.83c0,0.77,0.1,1.35,0.31,1.74c0.2,0.39,0.61,0.66,1.22,0.82
			l2.32,0.49V257.37z"/>
		<path d="M304.04,252.55c-0.49,0.73-1.05,1.43-1.68,2.1c-0.63,0.67-1.35,1.26-2.17,1.77c-0.81,0.51-1.71,0.92-2.68,1.25
			c-0.98,0.33-2.03,0.49-3.17,0.49c-1.83,0-3.49-0.3-4.97-0.91c-1.48-0.61-2.74-1.46-3.78-2.56c-1.04-1.1-1.83-2.39-2.38-3.87
			s-0.82-3.12-0.82-4.91c0-1.95,0.33-3.72,0.98-5.31c0.65-1.59,1.56-2.96,2.74-4.12c1.18-1.16,2.59-2.05,4.24-2.68
			c1.65-0.63,3.49-0.95,5.52-0.95c2.2,0,4,0.34,5.43,1.01c1.42,0.67,2.13,1.62,2.13,2.83c0,0.73-0.2,1.31-0.61,1.74
			s-0.89,0.66-1.46,0.7c-0.57,0-1.13-0.21-1.68-0.64c-0.55-0.43-1.11-0.9-1.68-1.43s-1.2-1.02-1.89-1.46
			c-0.69-0.45-1.46-0.67-2.32-0.67c-1.02,0-1.89,0.3-2.62,0.88c-0.73,0.59-1.32,1.34-1.77,2.26c-0.45,0.92-0.78,1.94-1.01,3.08
			c-0.22,1.14-0.34,2.28-0.34,3.42c0,2.8,0.77,5.06,2.32,6.77c1.54,1.71,3.48,2.62,5.79,2.74c1.54,0.12,2.9-0.08,4.05-0.61
			c1.16-0.53,2.23-1.26,3.2-2.2L304.04,252.55z"/>
		<path d="M329.16,242.49h-15.92c-0.08,0.41-0.13,0.71-0.15,0.91c-0.02,0.2-0.03,0.51-0.03,0.92c0,1.42,0.2,2.72,0.61,3.9
			c0.41,1.18,0.98,2.2,1.71,3.05c0.73,0.85,1.62,1.51,2.65,1.98c1.04,0.47,2.2,0.7,3.51,0.7c1.42,0,2.73-0.23,3.93-0.7
			c1.2-0.47,2.47-1.35,3.81-2.65l0.24,1.16c-0.57,0.89-1.21,1.73-1.92,2.5c-0.71,0.77-1.52,1.45-2.41,2.04
			c-0.89,0.59-1.91,1.05-3.05,1.37c-1.14,0.33-2.42,0.49-3.84,0.49c-1.63,0-3.11-0.3-4.45-0.91c-1.34-0.61-2.5-1.47-3.48-2.59
			c-0.98-1.12-1.74-2.45-2.29-4c-0.55-1.54-0.82-3.23-0.82-5.06c0-1.87,0.29-3.58,0.88-5.12c0.59-1.54,1.41-2.89,2.47-4.02
			c1.06-1.14,2.34-2.02,3.84-2.65c1.5-0.63,3.17-0.95,5-0.95c1.59,0,2.97,0.24,4.15,0.73c1.18,0.49,2.17,1.17,2.96,2.04
			c0.79,0.88,1.4,1.9,1.83,3.08C328.83,239.89,329.08,241.15,329.16,242.49z M313.55,240.6h7.2c0.81,0,1.43-0.1,1.86-0.3
			s0.58-0.71,0.46-1.53c-0.12-1.14-0.46-2.12-1.01-2.96c-0.55-0.83-1.47-1.25-2.77-1.25c-1.46,0-2.68,0.52-3.66,1.55
			S313.96,238.65,313.55,240.6z"/>
	</g>
</g>
</svg>
