<!-- Generator: Adobe Illustrator 25.0.0, SVG Export Plug-In  -->
<svg version="1.1" xmlns="http://www.w3.org/2000/svg" xmlns:xlink="http://www.w3.org/1999/xlink" x="0px" y="0px" width="600px"
	 height="234.5px" viewBox="0 0 600 234.5" style="overflow:visible;enable-background:new 0 0 600 234.5;" xml:space="preserve">
<style type="text/css">
	.st0{fill:#EB3F43;}
</style>
<defs>
</defs>
<path class="st0" d="M84.9,7.6C39,7.6,0,40.4,0,90.9c0,45.4,34.7,81.4,84.4,81.4c45.9,0,84.9-32.8,84.9-83.3
	C169.4,43.7,134.7,7.6,84.9,7.6z M84.9,162.6c-29.9,0-51.3-30.6-51.3-72.8c0-40.4,20.3-72.3,50.9-72.3c29.9,0,51.3,30.6,51.3,72.8
	C135.8,130.6,115.5,162.6,84.9,162.6z M561,70.1V77l9.2,1.8c3.2,0.7,4.1,3.2,2.1,8.2l-21.1,50.7c-0.9,2.1-2.1,2.1-2.7,0L528.9,87
	c-2.1-5.2-0.9-7.5,2.3-8.2l9.1-1.8v-6.9H459V77l9.2,1.8c3.2,0.7,4.4,3.2,2.3,8.2l-20.3,53.4c-0.9,2.1-2.1,2.1-2.7,0L426.9,87
	c-1.8-5.2-0.9-7.5,2.3-8.2l9.1-1.8v-6.9h-51.6v7l5.1,1.1c3.4,0.7,5.5,2.5,6.9,5.7l34.9,85.8h15.8l34.9-85.8c1.8-4.5,3.9-6.4,7.5-6.4
	h1.4c3,0,5.2,1.1,7.1,5.5l36.5,89.1l-9.8,23.3c-6.4,15.5-11.1,18.3-17.1,18.3c-2.5,0-5.2-0.4-8-0.4c-7.1,0-11.4,5.1-11.4,10.5
	c0,6.2,5.1,10.5,13,10.5c11.4,0,22.6-9.2,32-31L585,86.6c2.3-5.2,5.2-7.5,10-8.5l5-0.9v-7.1H561z M241,160.9l-38.1,4.8
	c-12.5,1.6-16.5-2.5-16.5-8.9c0-7.5,8.2-13.5,36.8-13.5h0.4c20.7,0,45.2-12.5,45.2-39.7c0-8.7-3.2-16.6-9.2-23.1
	c-2.1-4.4-3-9.3-2.7-14.1c0-20.1,13.7-31.5,27.9-31.5c5.9,0,7.8,0.9,7.8,5.1c0,1.1-0.3,2.1-0.3,3.4c0,7.1,5.9,13.7,14.4,13.7
	c8.7,0,14.1-6.9,14.1-14.4c0-11.4-10.3-19.9-29.2-19.9c-26.1,0-46.1,16.9-46.1,42.7c0,2.1,0.3,3.7,0.3,5.2c-6.7-2.8-14-4.2-21.3-4.1
	c-20.6,0-45.2,12.5-45.2,39.7c0,12.5,7.1,24.2,19.4,31c-18.3,2.5-28.7,12.3-28.7,27.6c0,15.5,12.3,26.7,35.4,24l33.3-4.1
	c16.6-2.1,22.1,3.9,22.1,12.5c0,15.1-14.1,27.2-36.8,27.2c-18,0-24.7-6.4-24.7-15.5l0.3-4.5c0-5.5-3.4-9.3-8.9-9.6
	c-6.4,0-10.3,4.5-10.3,11.1c0,15.1,14.4,28.5,43.8,28.5c33.1,0,54.1-21.4,54.1-46.1C278.4,168.9,262.7,158.2,241,160.9L241,160.9z
	 M223.9,74.9c10.7,0,19.4,12.1,19.4,30.6c0,15.9-7.3,29.7-18.7,29.7c-11,0-19.6-12.1-19.6-30.6C204.9,88.8,212.2,74.9,223.9,74.9
	L223.9,74.9z"/>
<path class="st0" d="M377.7,158V0l-40.2,10.3v4.8l11.4,3.7c1.8,0.7,2.5,2.1,2.5,3.9v134.7c0,2.5-2.1,4.4-5.1,4.4l-10.2,0.2
	l-10.8-0.2c-3,0-5.1-1.8-5.1-4.4V66.3l-40.1,10.2v4.8l11.4,3.7c1.8,0.7,2.5,2.1,2.5,3.9v69.2c0,2.1-1.1,3.2-2.7,3.4l-9.3,1.1v7.3
	h109.5v-7.3l-11.1-1.1C378.9,161.2,377.7,160.1,377.7,158L377.7,158z"/>
</svg>
