<!-- Generator: Adobe Illustrator 25.0.0, SVG Export Plug-In  -->
<svg version="1.1" xmlns="http://www.w3.org/2000/svg" xmlns:xlink="http://www.w3.org/1999/xlink" x="0px" y="0px"
	 width="323.54px" height="58.07px" viewBox="0 0 323.54 58.07" style="overflow:visible;enable-background:new 0 0 323.54 58.07;"
	 xml:space="preserve">
<defs>
</defs>
<g>
	<path d="M0.41,17.02h13.02c0.17-0.45,0.26-0.91,0.31-1.38h3.04c-0.02,0.49-0.08,0.95-0.2,1.38H30.6v2.22h-11
		c0.97,0.7,2.06,1.29,3.28,1.76c1.89,0.78,4.63,1.36,8.24,1.73l-1.46,2.33c-3.6-0.59-6.65-1.43-9.17-2.51
		c-1.78-0.85-3.33-1.95-4.65-3.31h-0.3c-0.65,0.87-1.55,1.63-2.67,2.31c-2.09,1.28-5.76,2.48-11,3.6L0,22.84
		c4.59-0.72,7.95-1.57,10.09-2.54c0.67-0.31,1.25-0.66,1.72-1.06H0.41V17.02z M13.73,0l3.81,0.41c-0.33,0.68-0.78,1.32-1.31,1.92
		h12.52v13.64h-3.17V4.44H4.75v11.53H1.59V2.33h10.83C13,1.59,13.44,0.81,13.73,0z M22.67,4.76l1.32,1.78
		c-2.14,0.27-4.6,0.48-7.36,0.62v2.44h1.85c0.65-0.7,1.13-1.44,1.42-2.22l2.9,0.33c-0.34,0.68-0.79,1.32-1.35,1.89h3.21v1.92h-5.03
		c1.57,0.67,3.02,1.43,4.35,2.3l-1.45,1.8c-1.58-1.24-3.19-2.22-4.86-2.94l0.91-1.17h-1.96v3.46h-2.91v-3.46H13.6
		c-0.47,0.62-0.99,1.14-1.55,1.57c-1.02,0.78-2.48,1.55-4.39,2.33l-1.45-1.9c1.82-0.55,3.11-1.07,3.84-1.54
		c0.25-0.15,0.48-0.3,0.68-0.46H5.8V9.61h3.54c-0.43-0.56-0.9-1.08-1.41-1.57l2.9-0.32c0.49,0.56,0.96,1.19,1.38,1.89h1.52V7.28
		c-2.11,0.07-4.39,0.11-6.84,0.11L6.08,5.5C12.59,5.5,18.13,5.25,22.67,4.76z"/>
	<path d="M46.65,0.22c0.92,0.86,1.77,1.89,2.53,3.06h5.94c1.03-0.98,1.94-2.03,2.73-3.17l3.17,0.84c-0.74,0.85-1.54,1.62-2.39,2.33
		h7.29V5.5H53.54v1.68H64.6V9.4H53.54v0.54c0,0.49-0.01,0.95-0.03,1.38h13.87v2.33h-14.1c-0.11,0.78-0.25,1.48-0.44,2.11h14.54v2.22
		H56.03c0.46,0.78,1.05,1.39,1.79,1.84c0.81,0.54,2.02,1.04,3.61,1.52c1.39,0.41,3.54,0.85,6.45,1.3l-1.96,2.43
		c-2.79-0.54-5.06-1.12-6.82-1.75c-1.77-0.67-3.15-1.43-4.11-2.28c-1.01-0.85-1.71-1.86-2.09-3.06h-0.91
		c-0.46,0.94-0.99,1.76-1.62,2.47c-2.17,2.42-6.29,3.92-12.38,4.51l-1.45-2.43c5.85-0.31,9.67-1.5,11.47-3.6
		c0.27-0.3,0.5-0.62,0.71-0.95H37.04v-2.22h12.69c0.2-0.67,0.36-1.37,0.47-2.11H37.04v-2.33h13.43c0.03-0.47,0.04-0.93,0.04-1.38
		V9.4H39.8V7.18h10.7V5.5H38.35V3.29h7.36c-0.61-0.67-1.34-1.37-2.2-2.11L46.65,0.22z"/>
	<path d="M73.31,5.4h5.16V0.23h3.14V5.4h4.75v2.33h-4.75v0.81c1.96,1.49,3.93,3.15,5.94,5.01l-1.83,2.22
		c-1.64-1.85-3.01-3.32-4.11-4.38v13.69h-3.14V11.44c-0.14,0.34-0.28,0.68-0.41,1c-0.99,2.4-2.22,4.5-3.68,6.28l-1.32-2.84
		c1.89-2.36,3.45-5.07,4.69-8.15h-4.45V5.4z M87.55,5.4h5.67V0.23h3.17V5.4h6.98v2.33H97.6c0.7,1.86,1.54,3.62,2.53,5.28
		c1.06,1.68,2.53,3.5,4.42,5.49l-2.23,2.33c-1.87-2.23-3.36-4.49-4.48-6.79c-0.54-1.02-1.03-2.15-1.45-3.36v14.4h-3.17V11.33
		c-1.73,3.84-3.79,7.04-6.18,9.61l-1.99-2.44c3.04-3.01,5.42-6.6,7.15-10.77h-4.65V5.4z"/>
	<path d="M109.61,21.37l2.26,2.33c2.83-1.89,5.21-4.01,7.12-6.36l-2.4-1.68C114.55,17.93,112.22,19.84,109.61,21.37z M109.75,14.61
		h13.7v7.17c0,0.43-0.44,0.65-1.32,0.65c-1.06,0-2.41-0.07-4.08-0.22l0.68,2.55h4.36c1.37,0,2.31-0.2,2.83-0.6
		c0.56-0.38,0.84-1.03,0.84-1.95v-7.6h13.05v-2.44h-30.06V14.61z M122,0.64c0.47,0.52,0.88,1.1,1.25,1.7h-12.96v6.23h3.27v-4H136
		v3.9h3.28V2.34h-12.62c-0.38-0.79-0.79-1.49-1.22-2.11L122,0.64z M115.01,9.63h19.4V7.19h-19.4V9.63z M130.32,17.77
		c3.15,2.13,5.56,4.11,7.23,5.93l2.53-2c-2-1.9-4.47-3.8-7.39-5.71L130.32,17.77z"/>
	<path d="M152.19,0.23l2.77,0.73c-1.19,2.53-2.54,4.78-4.05,6.74c1-0.13,1.95-0.28,2.87-0.43c0.72-1.19,1.43-2.44,2.12-3.76
		l2.63,0.73c-2.33,4.21-4.72,7.65-7.15,10.34c1.72-0.11,3.21-0.29,4.45-0.54c-0.27-0.93-0.56-1.83-0.88-2.7l2.26-0.54
		c0.74,1.69,1.39,3.64,1.96,5.82l-2.5,0.54c-0.09-0.44-0.19-0.86-0.3-1.28c-2.23,0.46-5.29,0.8-9.18,1.06l-0.78-2.22
		c0.73,0,1.42-0.01,2.1-0.03c1.27-1.44,2.59-3.19,3.91-5.23c-1.71,0.31-3.59,0.62-5.63,0.92l-0.64-2.22
		c0.59-0.04,1.15-0.08,1.69-0.13C149.5,5.7,150.95,3.1,152.19,0.23z M147.47,17.99l2.49,0.22c-0.18,2.67-0.53,4.93-1.04,6.77
		l-2.77-0.65C146.8,22.33,147.23,20.22,147.47,17.99z M153.4,17.99c0.45,1.48,0.75,3.49,0.91,6.01l-2.63,0.22
		c-0.07-2.57-0.25-4.58-0.54-6.01L153.4,17.99z M157.22,17.56c0.54,1.48,1.02,3.17,1.45,5.09l-2.5,0.52
		c-0.33-1.75-0.74-3.44-1.21-5.06L157.22,17.56z M159.3,1.81h5.63c0.12-0.52,0.22-1.04,0.31-1.57l3.04,0.3
		c-0.09,0.44-0.19,0.87-0.28,1.27h6.71v4.14h2.54v2h-19v-2h5.43c0.3-0.7,0.54-1.41,0.75-2.14h-5.13V1.81z M159.3,9.33h16.23v5.38
		h-5.67v1.16h6.58v2.01h-6.58v2.11h7.39v2.11h-7.39v2.97h-3.04V22.1h-4.41c-0.18,0.49-0.38,0.95-0.58,1.38l-2.9-0.83
		c0.65-1.17,1.22-2.65,1.69-4.44l2.9,0.51c-0.11,0.47-0.24,0.89-0.37,1.28h3.67v-2.11h-6.71v-2.01h6.71v-1.16h-7.52V9.33z
		 M172.64,12.79v-1.57h-10.42v1.57H172.64z M166.63,5.95h5.19V3.81h-4.39C167.19,4.57,166.92,5.28,166.63,5.95z"/>
	<path d="M184.27,17.56l2.63,0.21c-0.23,2.64-0.62,4.86-1.18,6.66l-3.03-0.73C183.47,21.77,184,19.72,184.27,17.56z M189.12,0.23
		l2.91,0.73c-1.22,2.4-2.56,4.51-4.01,6.33c1.19-0.07,2.36-0.17,3.5-0.29c0.7-0.98,1.39-2.01,2.09-3.09l2.91,0.86
		c-2.52,3.76-5.1,6.84-7.73,9.24c2.03-0.14,3.72-0.36,5.1-0.62c-0.34-0.94-0.7-1.84-1.08-2.71l2.39-0.62
		c0.88,1.8,1.67,3.88,2.36,6.23l-2.63,0.54c-0.14-0.52-0.27-1.03-0.4-1.51c-2.5,0.5-6.01,0.9-10.53,1.19l-0.81-2.33
		c0.81,0,1.57-0.01,2.29-0.03c1.49-1.37,2.98-3.04,4.49-5c-1.99,0.23-4.16,0.46-6.51,0.7l-0.64-2.22c0.65-0.04,1.29-0.07,1.92-0.12
		C186.43,5.34,187.89,2.91,189.12,0.23z M190.85,17.56c0.59,1.3,0.98,3.07,1.19,5.3l-2.91,0.2c-0.09-2.28-0.35-4.03-0.78-5.29
		L190.85,17.56z M195.2,17.15c0.69,1.49,1.25,2.87,1.65,4.11h6.92V4.45h-6.85V2.13h16.6v2.32h-6.61v16.81h7.11v2.44h-17.64v-2.06
		l-1.99,0.57c-0.34-1.57-0.78-3.12-1.31-4.65L195.2,17.15z"/>
	<path d="M226.74,0.53h1.31c2.03,1.81,3.83,3.71,5.4,5.71l-2.22,1.71c-1.75-2.4-3.2-4.2-4.36-5.39c-1.82,2.52-4.01,4.99-6.58,7.39
		l-1.08-2.76c2.16-1.82,4.14-4.04,5.94-6.65H226.74z M220.3,11.44h12.52v2.21c-0.84,1.83-1.66,3.27-2.47,4.34
		c-0.54,0.75-1.22,1.55-2.06,2.38c1.01,0.81,1.95,1.61,2.8,2.38l-2.36,1.89c-1.91-1.99-4.64-4.13-8.17-6.44l2.23-1.71
		c1.15,0.75,2.22,1.48,3.24,2.2c0.76-0.72,1.36-1.38,1.79-1.97c0.54-0.59,1.11-1.58,1.72-2.95h-9.25V11.44z M226.61,5.95
		c1.28,1.38,2.29,2.57,3.04,3.57L227.01,11c-0.65-1.17-1.53-2.51-2.63-4.01L226.61,5.95z M232.95,1.07h16.6v2.11h-6.81
		c-0.2,0.74-0.47,1.44-0.81,2.11h6.95v15.13h-3.3c1.77,0.74,3.4,1.58,4.89,2.52l-1.72,2.14c-1.82-1.39-3.7-2.49-5.63-3.31l1.08-1.35
		h-5.33l1.35,0.95c-1.55,1.35-3.49,2.59-5.81,3.71l-1.85-2.03c1.89-0.74,3.57-1.61,5.03-2.62h-3.71V5.29h4.96
		c0.34-0.68,0.62-1.39,0.85-2.11h-6.72V1.07z M236.77,9.73h9.21V7.4h-9.21V9.73z M236.77,13.96h9.21v-2.22h-9.21V13.96z
		 M245.98,18.31v-2.33h-9.21v2.33H245.98z"/>
	<path d="M285.96,10.26v6.11h-3.03v-3.9h-10.8v2.52h10.13v5.71c0,0.83-0.27,1.45-0.81,1.86c-0.45,0.38-1.1,0.57-1.96,0.57h-3.95
		l-0.64-2.22l3.41,0.11c0.63-0.04,0.94-0.35,0.94-0.94v-2.96h-7.12l0.58,33.9l-2.16,1.36l-2.26-1.36l0.66-33.9h-6.47v5.91h-3v-8.04
		h9.48v-2.52H258.8v3.79h-3.04v-6H285.96z M256.3,2.94h4.22V0.29h3.04v2.65h2.49V0.29h3.04v2.65h3.28V0.29h3.04v2.65h2.49V0.29h3.04
		v2.65h4.62v2.22h-4.62v0.95c0,0.51,0.39,0.76,1.18,0.76h3.17v2.11h-3.94c-1.06,0-1.89-0.17-2.5-0.52
		c-0.63-0.33-0.94-0.85-0.94-1.59V5.16h-2.49v3.82h-9.35V5.16h-2.7c-0.22,0.93-0.61,1.72-1.15,2.39c-0.78,0.93-2.06,1.66-3.81,2.17
		L256.8,7.6c1.41-0.42,2.39-0.92,2.9-1.54c0.22-0.28,0.39-0.57,0.51-0.9h-3.91V2.94z M269.08,5.16v1.71h3.28V5.16H269.08z"/>
	<path d="M299.31,0.23c0.68,0.91,1.33,1.93,1.96,3.06h5.54v2.23H292.3V3.29h5.87c-0.59-0.97-1.26-1.89-2.02-2.75L299.31,0.23z
		 M293.51,7.41h12.12v2.11h-12.12V7.41z M293.51,11.22h12.12v2.11h-12.12V11.22z M296.65,23.05v1.92h-3v-9.74h11.7v9.31h-3.04v-1.48
		H296.65z M302.32,20.83v-3.38h-5.67v3.38H302.32z M307.35,7.95h6.44V0.23h3.31v7.71h6.45v2.44h-6.45v14.69h-3.31V10.38h-6.44V7.95z
		"/>
	<path d="M294.58,30.69h10.8v-1.36h3.03v1.36h11.2v2.65h2.77v1.71h-2.77v2.73h-11.2v1.05h12.39v1.6h-12.39v0.94h14.24v1.68h-30.33
		v-1.68h13.06v-0.94h-11.47v-1.6h11.47v-1.05h-10.8v-1.59h10.8v-1.14h-13.06v-1.71h13.06v-1.06h-10.8V30.69z M292.46,51.85h29.79
		v1.78h-29.79V51.85z M295.08,44.04h24.39v6.84h-24.39V44.04z M297.99,46.65h7.79V45.6h-7.79V46.65z M305.78,49.31v-1.17h-7.79v1.17
		H305.78z M308.41,32.28v1.06h8.31v-1.06H308.41z M308.41,35.05v1.14h8.31v-1.14H308.41z M308.68,45.6v1.05h7.9V45.6H308.68z
		 M316.58,49.31v-1.17h-7.9v1.17H316.58z"/>
	<g>
		<path d="M13.48,42.78c0,1.12-0.43,2.12-1.29,3.01c-0.86,0.9-2.01,1.51-3.45,1.84c-0.62,0.14-1.29,0.23-2.03,0.3
			c-0.74,0.06-1.55,0.09-2.45,0.09l0.03,4.84H2.02c0.01-0.46,0.02-1.3,0.04-2.54c0.02-1.24,0.02-3.15,0.02-5.74
			c0-0.83,0-1.83-0.01-3.03c-0.01-1.2-0.03-2.53-0.05-4c0.39-0.01,0.77-0.01,1.16-0.01c0.38,0,0.68,0,0.93,0
			c1.57,0,2.91,0.08,4.02,0.25c1.11,0.17,2.04,0.46,2.8,0.86c0.82,0.43,1.46,1,1.9,1.7C13.26,41.04,13.48,41.85,13.48,42.78z
			 M11.15,42.79c0-0.79-0.21-1.46-0.64-2.01c-0.43-0.55-1.08-0.99-1.97-1.31C8,39.28,7.4,39.15,6.76,39.1
			c-0.64-0.04-1.3-0.07-1.97-0.07c-0.08,0-0.16,0-0.25,0c-0.08,0-0.17,0-0.26,0c0,0.09-0.01,0.66-0.03,1.72
			c-0.02,1.06-0.03,1.89-0.03,2.51c0,0.56,0,1.23,0.01,2c0.01,0.77,0.02,1.21,0.02,1.31c0.08,0,0.18,0,0.29,0c0.11,0,0.2,0,0.26,0
			c0.61,0,1.25-0.03,1.94-0.1c0.69-0.07,1.28-0.19,1.77-0.38c0.86-0.3,1.51-0.72,1.96-1.27C10.93,44.28,11.15,43.6,11.15,42.79z"/>
		<path d="M23.78,42.61c-0.5,0.1-1.27,0.31-2.31,0.63c-1.04,0.32-2.23,0.75-3.58,1.28c0,0.08,0,0.46-0.01,1.14
			c-0.01,0.69-0.02,1.32-0.02,1.91c0,0.91,0.01,1.97,0.03,3.2c0.02,1.24,0.03,1.93,0.03,2.07h-2.18c0-0.13,0.01-0.56,0.03-1.28
			c0.02-0.72,0.03-1.96,0.03-3.72c0-0.7,0-1.7-0.02-2.97c-0.01-1.27-0.03-2.47-0.04-3.6h2.15v1.74l0.01,0.01
			c1.04-0.49,2.05-0.91,3.05-1.27c1-0.36,1.81-0.6,2.41-0.73L23.78,42.61z"/>
		<path d="M37.27,47.05c0,0.88-0.19,1.73-0.57,2.54c-0.38,0.81-0.92,1.5-1.63,2.07c-0.6,0.48-1.26,0.85-2,1.1
			c-0.74,0.25-1.56,0.38-2.49,0.38c-0.88,0-1.69-0.12-2.45-0.38c-0.77-0.25-1.45-0.61-2.05-1.09c-0.69-0.56-1.23-1.25-1.6-2.07
			c-0.38-0.81-0.56-1.67-0.56-2.59c0-0.88,0.16-1.68,0.49-2.41c0.32-0.74,0.82-1.4,1.51-1.99c0.61-0.54,1.32-0.95,2.12-1.23
			c0.81-0.29,1.66-0.43,2.57-0.43c0.94,0,1.8,0.13,2.57,0.39c0.77,0.26,1.45,0.66,2.05,1.19c0.7,0.6,1.21,1.28,1.54,2.03
			C37.1,45.33,37.27,46.14,37.27,47.05z M35.1,47.13c0-0.72-0.14-1.42-0.42-2.1c-0.28-0.68-0.71-1.25-1.29-1.73
			c-0.36-0.29-0.78-0.51-1.27-0.67c-0.48-0.16-0.99-0.23-1.52-0.23c-0.63,0-1.18,0.08-1.65,0.25c-0.46,0.17-0.9,0.44-1.31,0.79
			c-0.48,0.41-0.86,0.94-1.15,1.59c-0.27,0.64-0.41,1.3-0.41,1.99c0,0.78,0.14,1.5,0.42,2.15c0.28,0.65,0.74,1.22,1.37,1.69
			c0.35,0.27,0.77,0.47,1.23,0.61c0.46,0.14,0.96,0.22,1.48,0.22c0.57,0,1.11-0.09,1.61-0.25c0.49-0.17,0.93-0.41,1.31-0.73
			c0.52-0.44,0.91-0.98,1.19-1.6C34.96,48.47,35.1,47.82,35.1,47.13z"/>
		<path d="M42.26,52.8c0,0.73-0.12,1.41-0.37,2.05c-0.25,0.64-0.67,1.19-1.26,1.64c-0.52,0.4-1.17,0.73-1.96,1
			c-0.78,0.27-1.81,0.46-3.08,0.57l-0.46-1.39c0.88-0.08,1.64-0.21,2.3-0.38c0.65-0.17,1.17-0.4,1.56-0.69
			c0.41-0.31,0.7-0.71,0.88-1.19c0.18-0.48,0.28-1.14,0.28-1.97c0-1.91-0.01-4.24-0.03-6.98c-0.02-2.73-0.03-4.13-0.03-4.19h2.17
			c0,0.1-0.01,0.7-0.02,1.78c-0.01,1.07-0.02,2.35-0.02,3.84c0,0.96,0.01,1.97,0.02,3.03C42.25,50.99,42.26,51.94,42.26,52.8z
			 M42.37,39.05h-2.4v-1.97h2.4V39.05z"/>
		<path d="M56.48,46.62H46.6c0.01,0.81,0.21,1.56,0.62,2.24c0.4,0.68,1.02,1.24,1.85,1.69c0.52,0.28,1.12,0.5,1.8,0.64
			c0.67,0.14,1.49,0.22,2.43,0.22c0.51,0,0.99-0.01,1.43-0.04c0.43-0.03,0.7-0.04,0.8-0.05l-0.25,1.54
			c-0.07,0.01-0.31,0.01-0.72,0.03c-0.41,0.02-0.89,0.03-1.45,0.03c-1.46,0-2.72-0.16-3.81-0.48c-1.08-0.32-1.96-0.75-2.66-1.31
			c-0.59-0.46-1.09-1.07-1.51-1.79c-0.42-0.72-0.62-1.53-0.62-2.42c0-0.87,0.15-1.65,0.46-2.36c0.31-0.7,0.78-1.36,1.4-1.96
			c0.54-0.51,1.21-0.92,2-1.2c0.8-0.29,1.62-0.42,2.48-0.42c0.85,0,1.6,0.1,2.26,0.32c0.66,0.21,1.22,0.54,1.71,0.97
			c0.54,0.49,0.95,1.09,1.23,1.8C56.33,44.76,56.48,45.62,56.48,46.62z M54.37,45.34c-0.15-0.94-0.53-1.68-1.15-2.22
			c-0.62-0.53-1.45-0.8-2.47-0.8c-1.02,0-1.88,0.27-2.56,0.81c-0.68,0.54-1.16,1.28-1.42,2.2H54.37z"/>
		<path d="M67.82,51.37l-0.16,1.54c-0.08,0-0.19,0-0.35,0c-0.16,0-0.29,0-0.4,0c-1.17,0-2.28-0.09-3.29-0.28
			c-1.02-0.19-1.94-0.46-2.74-0.83c-1.11-0.51-1.97-1.17-2.59-2.01c-0.62-0.83-0.93-1.75-0.93-2.78c0-0.91,0.28-1.75,0.85-2.52
			c0.56-0.77,1.3-1.39,2.21-1.89c0.82-0.44,1.81-0.77,2.95-1.01c1.15-0.23,2.33-0.35,3.55-0.35c0.09,0,0.2,0,0.3,0
			c0.11,0,0.19,0,0.26,0l0.11,1.54c-0.06,0-0.13,0-0.21,0c-0.08,0-0.15,0-0.21,0c-1.01,0-1.88,0.05-2.6,0.15
			c-0.72,0.1-1.41,0.27-2.09,0.51c-0.91,0.3-1.62,0.78-2.15,1.44c-0.53,0.65-0.8,1.36-0.8,2.1c0,0.89,0.25,1.64,0.75,2.25
			c0.5,0.6,1.16,1.07,1.98,1.4c0.63,0.26,1.35,0.44,2.16,0.56c0.8,0.12,1.65,0.18,2.54,0.18c0.14,0,0.31,0,0.49,0
			C67.63,51.37,67.75,51.37,67.82,51.37z"/>
		<path d="M77.54,51.43l-0.25,1.45c-0.06,0.01-0.22,0.01-0.47,0.01c-0.25,0.01-0.46,0.01-0.65,0.01c-1.87,0-3.28-0.33-4.25-0.98
			c-0.96-0.65-1.44-1.65-1.44-3c0-0.84,0.01-1.75,0.02-2.72c0.01-0.96,0.01-2.17,0.01-3.6h-2.29v-1.33h2.4v-2.73h2v2.73h4.9v1.33
			h-4.9c0,0.16,0,0.63-0.01,1.43c-0.01,0.79-0.02,1.38-0.02,1.75c0,0.32,0,0.71,0,1.18c0,0.46,0,1.02,0,1.66
			c0,0.99,0.32,1.7,0.96,2.14c0.64,0.43,1.62,0.66,2.95,0.66c0.16,0,0.36,0,0.59,0C77.33,51.43,77.47,51.43,77.54,51.43z"/>
		<path d="M104.12,39.14c-0.15,0-0.76-0.01-1.83-0.02c-1.07-0.01-2.69-0.01-4.87-0.01c-0.02,1.57-0.04,2.75-0.04,3.56
			c-0.01,0.81-0.01,1.92-0.01,3.31c0,1.35,0.01,2.71,0.02,4.1c0.01,1.38,0.03,2.31,0.04,2.77h-2.26c0.01-0.46,0.03-1.4,0.04-2.81
			c0.01-1.41,0.02-2.8,0.02-4.15c0-1.33,0-2.38,0-3.17c0-0.78-0.01-1.99-0.03-3.62c-1.95-0.01-3.52-0.01-4.74,0.01
			c-1.21,0.01-1.88,0.02-1.99,0.02v-1.57c0.93,0,2.08,0,3.42,0.01c1.35,0.01,2.78,0.02,4.3,0.02c2.21,0,4.05-0.01,5.53-0.02
			c1.48-0.01,2.28-0.01,2.4-0.01V39.14z"/>
		<path d="M116.01,46.62h-9.88c0.01,0.81,0.22,1.56,0.62,2.24c0.4,0.68,1.01,1.24,1.85,1.69c0.52,0.28,1.12,0.5,1.8,0.64
			c0.67,0.14,1.49,0.22,2.43,0.22c0.51,0,1-0.01,1.43-0.04c0.43-0.03,0.69-0.04,0.8-0.05l-0.25,1.54c-0.07,0.01-0.31,0.01-0.72,0.03
			c-0.41,0.02-0.89,0.03-1.45,0.03c-1.46,0-2.73-0.16-3.81-0.48c-1.08-0.32-1.96-0.75-2.66-1.31c-0.59-0.46-1.09-1.07-1.51-1.79
			c-0.42-0.72-0.62-1.53-0.62-2.42c0-0.87,0.16-1.65,0.46-2.36c0.31-0.7,0.77-1.36,1.39-1.96c0.54-0.51,1.21-0.92,2.01-1.2
			c0.8-0.29,1.62-0.42,2.48-0.42c0.85,0,1.6,0.1,2.26,0.32c0.66,0.21,1.22,0.54,1.71,0.97c0.54,0.49,0.95,1.09,1.23,1.8
			C115.86,44.76,116,45.62,116.01,46.62z M113.89,45.34c-0.14-0.94-0.53-1.68-1.15-2.22c-0.62-0.53-1.45-0.8-2.47-0.8
			c-1.02,0-1.88,0.27-2.55,0.81c-0.68,0.54-1.16,1.28-1.42,2.2H113.89z"/>
		<path d="M127.75,46.32c0,1.89-0.01,3.42-0.01,4.61c-0.01,1.19-0.01,1.83-0.01,1.92c-0.09,0.01-0.52,0.04-1.28,0.09
			c-0.75,0.05-1.73,0.08-2.93,0.08c-0.75,0-1.5-0.06-2.26-0.17c-0.75-0.11-1.4-0.27-1.96-0.49c-0.72-0.28-1.32-0.67-1.77-1.15
			c-0.46-0.49-0.68-1.08-0.68-1.77c0-0.72,0.27-1.35,0.8-1.88c0.53-0.53,1.27-0.96,2.22-1.28c0.59-0.21,1.38-0.39,2.38-0.56
			c0.99-0.17,2.12-0.29,3.39-0.37c-0.06-0.6-0.23-1.08-0.54-1.46c-0.3-0.38-0.75-0.67-1.33-0.87c-0.41-0.13-0.86-0.23-1.35-0.29
			c-0.49-0.05-1.07-0.08-1.73-0.08c-0.41,0-0.76,0.01-1.05,0.02c-0.29,0.01-0.68,0.04-1.17,0.06l0.22-1.54
			c0.14-0.01,0.41-0.02,0.82-0.04c0.41-0.02,0.97-0.02,1.67-0.02c1.08,0,2.04,0.09,2.89,0.27c0.84,0.19,1.54,0.49,2.1,0.91
			c0.52,0.4,0.92,0.89,1.18,1.47C127.62,44.37,127.75,45.21,127.75,46.32z M125.64,49.07c0-0.26,0-0.59,0-0.98
			c0-0.4,0-0.86-0.02-1.38c-0.4,0.02-1.1,0.08-2.11,0.2c-1,0.12-1.85,0.29-2.53,0.51c-0.51,0.16-0.97,0.4-1.36,0.72
			c-0.4,0.32-0.59,0.72-0.59,1.2c0,0.52,0.16,0.94,0.5,1.25c0.34,0.32,0.8,0.57,1.39,0.73c0.45,0.13,0.94,0.23,1.49,0.29
			c0.54,0.06,1.12,0.09,1.72,0.09c0.18,0,0.41-0.01,0.68-0.01c0.26-0.01,0.54-0.02,0.83-0.02c0-0.05,0-0.3,0-0.76
			C125.64,50.44,125.64,49.83,125.64,49.07z"/>
		<path d="M150.82,52.85h-2.17c0.01-0.09,0.02-0.62,0.04-1.61c0.01-0.98,0.02-1.9,0.02-2.78c0-0.34,0-0.91-0.01-1.69
			c0-0.78-0.01-1.37-0.02-1.75c-0.02-0.92-0.24-1.55-0.65-1.91c-0.4-0.35-1.03-0.52-1.88-0.52c-0.5,0-1.1,0.1-1.78,0.31
			c-0.69,0.22-1.46,0.54-2.33,0.99c0,0.04,0,0.11,0.01,0.23c0.02,0.12,0.02,0.26,0.02,0.45c0,0.62,0,1.24-0.02,1.88
			c-0.01,0.63-0.01,1.24-0.01,1.82c0,1.26,0.01,2.32,0.03,3.18c0.02,0.86,0.03,1.33,0.03,1.4h-2.17c0-0.09,0.01-0.55,0.03-1.39
			c0.02-0.83,0.03-1.83,0.03-2.97c0-0.38,0-0.96-0.01-1.74c0-0.78-0.01-1.35-0.02-1.71c-0.01-0.33-0.05-0.66-0.11-0.96
			c-0.06-0.3-0.18-0.56-0.36-0.78c-0.19-0.24-0.43-0.41-0.73-0.54c-0.3-0.12-0.73-0.17-1.28-0.17c-0.51,0-1.1,0.12-1.78,0.38
			c-0.68,0.25-1.46,0.62-2.35,1.1c0,0.13,0,0.61-0.02,1.45c-0.01,0.84-0.01,1.53-0.01,2.06c0,0.91,0.01,1.99,0.03,3.26
			c0.02,1.27,0.03,1.94,0.03,2.01h-2.18c0-0.06,0.01-0.51,0.03-1.33c0.02-0.83,0.03-2.2,0.03-4.11c0-0.62,0-1.46-0.01-2.53
			c0-1.06-0.02-2.25-0.05-3.6h2.15v1.32l0.01,0.01c0.61-0.38,1.38-0.74,2.3-1.11c0.92-0.37,1.74-0.54,2.45-0.54
			c0.89,0,1.63,0.16,2.23,0.47c0.6,0.32,1.02,0.72,1.27,1.21h0.03c1.05-0.55,2.01-0.97,2.89-1.25c0.88-0.29,1.63-0.43,2.25-0.43
			c1.26,0,2.24,0.3,2.95,0.92c0.71,0.62,1.06,1.44,1.06,2.49c0,0.81,0,1.49-0.01,2.05c-0.01,0.55-0.01,1.14-0.01,1.75
			c0,1.28,0.01,2.37,0.03,3.25C150.82,52.31,150.82,52.79,150.82,52.85z"/>
		<path d="M178.86,39.14c-0.14,0-0.75-0.01-1.83-0.02c-1.07-0.01-2.7-0.01-4.87-0.01c-0.02,1.57-0.03,2.75-0.05,3.56
			c0,0.81-0.01,1.92-0.01,3.31c0,1.35,0.01,2.71,0.02,4.1c0.01,1.38,0.02,2.31,0.04,2.77h-2.26c0.01-0.46,0.03-1.4,0.04-2.81
			c0.01-1.41,0.01-2.8,0.01-4.15c0-1.33,0-2.38,0-3.17c0-0.78-0.01-1.99-0.03-3.62c-1.94-0.01-3.52-0.01-4.73,0.01
			c-1.21,0.01-1.87,0.02-1.99,0.02v-1.57c0.95,0,2.08,0,3.43,0.01c1.34,0.01,2.77,0.02,4.3,0.02c2.21,0,4.05-0.01,5.53-0.02
			c1.49-0.01,2.28-0.01,2.4-0.01V39.14z"/>
		<path d="M190.75,46.62h-9.87c0.01,0.81,0.21,1.56,0.62,2.24c0.4,0.68,1.01,1.24,1.84,1.69c0.53,0.28,1.13,0.5,1.8,0.64
			c0.68,0.14,1.48,0.22,2.43,0.22c0.52,0,1-0.01,1.43-0.04c0.44-0.03,0.7-0.04,0.8-0.05l-0.24,1.54c-0.08,0.01-0.32,0.01-0.72,0.03
			c-0.41,0.02-0.9,0.03-1.45,0.03c-1.46,0-2.73-0.16-3.81-0.48c-1.08-0.32-1.97-0.75-2.65-1.31c-0.59-0.46-1.1-1.07-1.51-1.79
			c-0.41-0.72-0.63-1.53-0.63-2.42c0-0.87,0.16-1.65,0.47-2.36c0.31-0.7,0.77-1.36,1.39-1.96c0.54-0.51,1.2-0.92,2-1.2
			c0.79-0.29,1.62-0.42,2.48-0.42c0.85,0,1.6,0.1,2.26,0.32c0.65,0.21,1.22,0.54,1.7,0.97c0.54,0.49,0.95,1.09,1.23,1.8
			C190.6,44.76,190.74,45.62,190.75,46.62z M188.63,45.34c-0.15-0.94-0.53-1.68-1.15-2.22c-0.62-0.53-1.44-0.8-2.47-0.8
			c-1.02,0-1.87,0.27-2.56,0.81c-0.68,0.54-1.15,1.28-1.42,2.2H188.63z"/>
		<path d="M200.99,42.61c-0.5,0.1-1.27,0.31-2.31,0.63c-1.04,0.32-2.23,0.75-3.58,1.28c0,0.08-0.01,0.46-0.02,1.14
			c-0.01,0.69-0.01,1.32-0.01,1.91c0,0.91,0.01,1.97,0.03,3.2c0.02,1.24,0.03,1.93,0.03,2.07h-2.17c0-0.13,0.01-0.56,0.03-1.28
			c0.02-0.72,0.03-1.96,0.03-3.72c0-0.7,0-1.7-0.01-2.97c-0.01-1.27-0.03-2.47-0.04-3.6h2.15v1.74l0.01,0.01
			c1.04-0.49,2.05-0.91,3.06-1.27c1-0.36,1.81-0.6,2.41-0.73L200.99,42.61z"/>
		<path d="M213.01,46.62h-9.88c0.01,0.81,0.22,1.56,0.62,2.24c0.4,0.68,1.01,1.24,1.84,1.69c0.53,0.28,1.13,0.5,1.81,0.64
			c0.67,0.14,1.48,0.22,2.43,0.22c0.52,0,1-0.01,1.43-0.04c0.43-0.03,0.7-0.04,0.8-0.05l-0.24,1.54c-0.07,0.01-0.32,0.01-0.73,0.03
			c-0.41,0.02-0.89,0.03-1.45,0.03c-1.46,0-2.72-0.16-3.81-0.48c-1.08-0.32-1.97-0.75-2.66-1.31c-0.59-0.46-1.09-1.07-1.51-1.79
			c-0.42-0.72-0.62-1.53-0.62-2.42c0-0.87,0.15-1.65,0.46-2.36c0.31-0.7,0.77-1.36,1.39-1.96c0.54-0.51,1.21-0.92,2-1.2
			c0.8-0.29,1.62-0.42,2.48-0.42c0.85,0,1.6,0.1,2.25,0.32c0.65,0.21,1.23,0.54,1.71,0.97c0.54,0.49,0.94,1.09,1.23,1.8
			C212.84,44.76,212.99,45.62,213.01,46.62z M210.89,45.34c-0.15-0.94-0.54-1.68-1.16-2.22c-0.62-0.53-1.44-0.8-2.46-0.8
			c-1.02,0-1.87,0.27-2.55,0.81c-0.69,0.54-1.16,1.28-1.42,2.2H210.89z"/>
		<path d="M226.57,52.85h-2.17c0.01-0.22,0.02-0.92,0.04-2.12c0.01-1.2,0.02-1.94,0.02-2.22c0-0.4,0-0.99,0-1.76
			c-0.01-0.78-0.01-1.34-0.02-1.71c-0.03-0.88-0.23-1.51-0.6-1.88c-0.37-0.38-1.02-0.57-1.94-0.57c-0.55,0-1.24,0.13-2.06,0.41
			c-0.82,0.27-1.64,0.62-2.48,1.04c0,0.08-0.01,0.54-0.01,1.36c-0.01,0.83-0.01,1.58-0.01,2.26c0,0.88,0.01,1.96,0.03,3.21
			c0.02,1.25,0.03,1.91,0.03,1.98h-2.17c0-0.06,0.01-0.52,0.03-1.4c0.02-0.88,0.03-2.19,0.03-3.92c0-0.8-0.01-1.74-0.01-2.81
			c-0.01-1.07-0.02-2.22-0.05-3.43h2.14v1.3l0.02,0.02c1.27-0.62,2.33-1.04,3.17-1.28c0.85-0.25,1.55-0.36,2.12-0.36
			c1.17,0,2.11,0.3,2.82,0.92c0.71,0.62,1.07,1.46,1.07,2.52c0,0.96-0.01,1.79-0.02,2.49c-0.01,0.7-0.01,1.26-0.01,1.7
			c0,0.7,0.01,1.57,0.03,2.61C226.56,52.25,226.57,52.79,226.57,52.85z"/>
		<path d="M239.21,51.37l-0.16,1.54c-0.07,0-0.19,0-0.35,0s-0.3,0-0.41,0c-1.17,0-2.28-0.09-3.29-0.28
			c-1.02-0.19-1.94-0.46-2.75-0.83c-1.1-0.51-1.96-1.17-2.58-2.01c-0.62-0.83-0.93-1.75-0.93-2.78c0-0.91,0.28-1.75,0.85-2.52
			c0.56-0.77,1.3-1.39,2.22-1.89c0.82-0.44,1.81-0.77,2.95-1.01c1.15-0.23,2.33-0.35,3.55-0.35c0.1,0,0.2,0,0.31,0
			c0.11,0,0.19,0,0.25,0l0.11,1.54c-0.07,0-0.13,0-0.21,0c-0.08,0-0.15,0-0.21,0c-1.01,0-1.88,0.05-2.6,0.15
			c-0.72,0.1-1.41,0.27-2.09,0.51c-0.91,0.3-1.62,0.78-2.16,1.44c-0.53,0.65-0.79,1.36-0.79,2.1c0,0.89,0.25,1.64,0.75,2.25
			c0.5,0.6,1.16,1.07,1.98,1.4c0.64,0.26,1.36,0.44,2.16,0.56c0.81,0.12,1.66,0.18,2.55,0.18c0.15,0,0.31,0,0.49,0
			C239.02,51.37,239.14,51.37,239.21,51.37z"/>
		<path d="M252.06,46.62h-9.87c0.01,0.81,0.21,1.56,0.61,2.24c0.4,0.68,1.02,1.24,1.84,1.69c0.53,0.28,1.13,0.5,1.81,0.64
			c0.67,0.14,1.48,0.22,2.43,0.22c0.52,0,0.99-0.01,1.43-0.04c0.44-0.03,0.7-0.04,0.8-0.05l-0.25,1.54
			c-0.07,0.01-0.31,0.01-0.72,0.03c-0.41,0.02-0.89,0.03-1.45,0.03c-1.46,0-2.73-0.16-3.81-0.48c-1.08-0.32-1.96-0.75-2.66-1.31
			c-0.59-0.46-1.1-1.07-1.51-1.79c-0.41-0.72-0.62-1.53-0.62-2.42c0-0.87,0.16-1.65,0.47-2.36c0.31-0.7,0.77-1.36,1.39-1.96
			c0.54-0.51,1.2-0.92,2-1.2c0.8-0.29,1.62-0.42,2.48-0.42c0.85,0,1.6,0.1,2.26,0.32c0.66,0.21,1.23,0.54,1.71,0.97
			c0.54,0.49,0.95,1.09,1.23,1.8C251.91,44.76,252.05,45.62,252.06,46.62z M249.94,45.34c-0.15-0.94-0.53-1.68-1.15-2.22
			c-0.63-0.53-1.44-0.8-2.46-0.8c-1.02,0-1.87,0.27-2.56,0.81c-0.68,0.54-1.15,1.28-1.42,2.2H249.94z"/>
	</g>
</g>
</svg>
